<svg width="49" height="49" viewBox="0 0 49 49" fill="none" xmlns="http://www.w3.org/2000/svg">
<g clip-path="url(#clip0_3381_6747)">
<path d="M22.6166 0C23.4261 0.148785 24.2357 0.297571 25.0452 0.47942C33.0081 2.21525 39.4181 9.10897 40.591 17.1765C41.4005 22.7807 40.178 27.9055 36.8574 32.5014C36.7913 32.6005 36.7252 32.7163 36.6756 32.7824C37.1878 33.2949 37.6834 33.7908 38.1955 34.3033C38.8233 33.7908 39.5833 33.5428 40.4423 33.7578C41.8796 34.1215 42.6726 35.5597 42.1439 36.9484C42.0118 37.3121 42.0944 37.4774 42.3257 37.7088C44.176 39.5439 46.0428 41.3789 47.8601 43.2635C48.3061 43.7264 48.62 44.3381 48.9835 44.8836V46.7021C48.653 47.2146 48.3722 47.7767 47.9592 48.223C46.9019 49.3306 44.622 49.2976 43.4491 48.0908C41.5657 46.14 39.6163 44.2554 37.7164 42.3377C37.4686 42.0897 37.2704 42.0071 36.9069 42.1559C35.9157 42.5692 34.7758 42.2055 34.1315 41.3458C33.5037 40.5192 33.4872 39.3455 34.0819 38.4858C34.1645 38.3701 34.2471 38.2544 34.3297 38.1552C33.8341 37.6592 33.3385 37.1633 32.8594 36.6839C31.8516 37.2955 30.8769 37.9568 29.8526 38.5024C17.9083 44.7679 3.18846 37.8742 0.446041 24.6653C-1.94944 13.0601 5.45177 2.77733 16.0084 0.413293C16.7684 0.247976 17.5448 0.132254 18.3048 0C19.7421 0 21.1794 0 22.6001 0H22.6166ZM39.2033 20.4001C39.2033 10.0843 30.8108 1.63664 20.502 1.62011C10.1436 1.60358 1.7016 9.98516 1.66856 20.3175C1.63552 30.7159 10.028 39.1306 20.4359 39.1802C30.7282 39.2298 39.1702 30.7655 39.1868 20.4001H39.2033ZM41.004 43.3131C42.1605 44.4703 43.3004 45.611 44.4568 46.7517C45.2168 47.4956 46.208 47.5287 46.8853 46.8674C47.5627 46.1896 47.5131 45.2142 46.7697 44.4538C45.6959 43.3627 44.6055 42.2881 43.5317 41.2136C43.4656 41.1474 43.3665 41.0813 43.3169 41.0317C42.557 41.7922 41.8135 42.5361 41.0205 43.3296L41.004 43.3131ZM36.0644 40.7672C36.3618 40.5854 36.593 40.5027 36.7748 40.3209C37.9808 39.1306 39.1702 37.9403 40.3597 36.75C40.7562 36.3367 40.7893 35.8738 40.4589 35.5267C40.1119 35.1795 39.6163 35.196 39.2033 35.6093C38.5425 36.2541 37.8982 36.9153 37.2373 37.5601C36.6922 38.1056 36.1305 38.6677 35.5853 39.2132C35.321 39.4943 35.2053 39.8414 35.4036 40.1721C35.5522 40.4035 35.8166 40.5523 36.0644 40.7672ZM39.7485 41.9906C40.5084 41.2301 41.2684 40.4696 41.9787 39.7422C41.6483 39.3951 41.2518 38.9818 40.8553 38.5685C40.0789 39.3124 39.3024 40.0563 38.559 40.7507C39.0381 41.2632 39.4181 41.6599 39.7485 41.9906ZM34.2471 35.5101C34.6767 35.973 35.1227 36.4359 35.5522 36.8657C35.9983 36.4359 36.4609 35.973 36.9235 35.5267C36.4609 35.0638 35.9983 34.6174 35.5688 34.2041C35.1227 34.6505 34.6601 35.0968 34.2471 35.5101Z" fill="#2283B2"/>
<path d="M6.36036 26.8134C7.30203 25.8711 8.26023 24.9949 9.10277 24.0526C10.127 22.8954 11.2339 22.9781 12.1921 24.0361C13.1503 25.0941 14.1911 26.053 15.1823 27.0614C15.298 27.1771 15.4136 27.2763 15.5623 27.4086C16.4544 26.5158 17.33 25.6397 18.2056 24.7635C19.1968 23.7716 20.0394 23.755 21.0306 24.7635C22.1705 25.9207 23.327 27.0614 24.4339 28.169C26.4824 26.1191 28.4979 24.1022 30.5134 22.0853C30.4473 22.0853 30.2987 22.0688 30.15 22.0523C29.7039 22.0027 29.4726 21.7216 29.4231 21.2918C29.3735 20.9116 29.6544 20.4983 30.0674 20.4652C30.9925 20.4156 31.9177 20.4156 32.8263 20.4652C33.2724 20.4818 33.4871 20.8455 33.5037 21.3579C33.5037 22.0688 33.5037 22.7962 33.5037 23.5071C33.5037 24.1022 33.1898 24.4824 32.6941 24.499C32.1985 24.499 31.9012 24.1518 31.8681 23.5401C31.8681 23.474 31.8681 23.4079 31.8516 23.2591C31.6864 23.4079 31.5542 23.5236 31.4386 23.6228C29.5883 25.4743 27.738 27.3259 25.9042 29.1609C24.946 30.1198 24.0869 30.1198 23.1453 29.1609C21.9888 28.0037 20.8324 26.8465 19.6099 25.6231C18.949 26.2844 18.3213 26.9291 17.6935 27.5739C17.3961 27.8714 17.1152 28.169 16.8179 28.4501C16.0084 29.2436 15.0832 29.2436 14.2902 28.4501C13.1008 27.2598 11.8948 26.0695 10.7548 24.9123C9.59839 26.0695 8.44195 27.2267 7.20291 28.4666C7.64896 29.0783 8.14458 29.8387 8.73932 30.5C13.0512 35.2115 18.3708 36.9639 24.5165 35.2942C30.596 33.6575 34.3462 29.5081 35.6513 23.3418C37.4355 14.9436 31.6699 6.57859 23.2444 5.1238C22.3688 4.97502 21.4767 4.92542 20.5846 4.8593C19.9733 4.8097 19.6264 4.54519 19.6429 4.03271C19.6429 3.53676 20.0229 3.23919 20.6176 3.22266C28.7457 3.22266 36.0478 9.42205 37.3199 17.473C38.6415 25.7554 34.214 33.4426 26.3998 36.4514C16.9335 40.0884 6.07951 34.3023 3.78315 24.4328C1.66852 15.2908 6.88902 6.41328 15.8927 3.85086C16.1736 3.7682 16.4544 3.70208 16.7188 3.63595C17.2639 3.52023 17.6935 3.75167 17.8091 4.21456C17.9248 4.67745 17.6439 5.09074 17.0822 5.22299C14.9511 5.71895 12.9851 6.61166 11.2174 7.91766C5.48477 12.1333 3.35362 19.9032 6.14559 26.3671C6.19515 26.4828 6.24472 26.5985 6.34384 26.7638L6.36036 26.8134Z" fill="#2283B2"/>
<path d="M17.0988 20.4653C17.2144 20.1843 17.2805 20.0024 17.3631 19.8536C18.9326 16.9606 20.5186 14.0675 22.088 11.1745C22.1045 11.1249 22.1376 11.0918 22.1541 11.0422C22.4184 10.6124 22.8645 10.4801 23.261 10.6951C23.6575 10.91 23.8061 11.3563 23.5749 11.8027C23.2279 12.4639 22.8645 13.1252 22.501 13.77C21.2785 16.0017 20.0725 18.25 18.85 20.4818C18.7674 20.6306 18.6848 20.7959 18.5691 20.9282C18.3213 21.1927 17.9744 21.3249 17.6605 21.11C17.4127 20.9447 17.2475 20.6471 17.0823 20.4488L17.0988 20.4653Z" fill="#2283B2"/>
<path d="M24.5661 16.3322C25.9042 16.3653 26.9781 17.4564 26.9615 18.7955C26.945 20.1511 25.8051 21.2421 24.4669 21.2256C23.1122 21.1925 22.0219 20.0519 22.0714 18.6963C22.121 17.3572 23.2279 16.3157 24.5661 16.3322ZM24.533 17.9689C24.0704 17.9689 23.707 18.316 23.707 18.7624C23.707 19.2087 24.087 19.589 24.5165 19.589C24.946 19.589 25.293 19.2253 25.3095 18.7955C25.326 18.3326 24.9791 17.9689 24.5165 17.9689H24.533Z" fill="#2283B2"/>
<path d="M18.8004 13.0609C18.8004 14.4165 17.7266 15.491 16.3884 15.491C15.0338 15.491 13.9269 14.4 13.9269 13.0443C13.9269 11.7218 15.0338 10.6142 16.3554 10.5977C17.7266 10.5977 18.817 11.6722 18.817 13.0443L18.8004 13.0609ZM16.3554 12.2508C15.9093 12.2508 15.5459 12.6476 15.5459 13.0939C15.5459 13.5238 15.9259 13.8709 16.3554 13.8875C16.818 13.8875 17.1814 13.5403 17.1814 13.0774C17.1814 12.6145 16.818 12.2508 16.3554 12.2674V12.2508Z" fill="#2283B2"/>
</g>
<defs>
<clipPath id="clip0_3381_6747">
<rect width="49" height="49" fill="white"/>
</clipPath>
</defs>
</svg>
