<svg width="60" height="49" viewBox="0 0 60 49" fill="none" xmlns="http://www.w3.org/2000/svg">
<g clip-path="url(#clip0_3194_780)">
<path d="M0.000164795 30.4317C0.34704 29.2903 0.807977 28.3122 1.75641 27.5508C3.51579 26.1409 7.47673 25.9242 9.64392 25.0011C10.8252 24.4971 10.183 22.2504 10.2533 21.1483C8.24235 19.8137 6.92048 17.5419 6.62829 15.1461C4.62048 14.9828 3.13454 13.2087 3.98141 11.2148C4.14704 10.8254 4.6361 10.4157 4.68454 10.1566C4.8736 9.16437 4.60016 7.50016 4.68298 6.39331C4.87204 3.86559 6.4986 1.93291 8.90329 1.22326C9.2611 1.11807 9.77673 1.15261 10.1064 1.02073C10.7267 0.771102 10.8517 0.246718 11.9064 0.124258C13.6939 -0.0829837 19.0892 -0.0594335 20.7158 0.431979C22.9908 1.11807 24.9611 3.42128 25.1939 5.8124C25.3158 7.06841 24.9814 8.89904 25.197 10.0389C25.2595 10.367 25.9502 11.0091 26.0767 11.5068C26.5424 13.3406 25.2267 15.1508 23.3236 15.0409C23.0642 17.5153 21.6877 19.8483 19.5955 21.1718C19.6892 22.2033 19.1267 24.4688 20.2455 24.9932C23.4517 26.2351 29.4955 26.1048 29.8861 30.6029C29.972 31.5967 30.0033 35.4087 29.6674 36.1513C29.4658 36.5956 29.0095 36.8468 28.9377 37.3005L28.9408 48.3502C28.6658 49.4021 27.1861 48.9421 27.1861 48.1179V37.7166H24.2564V48.4696C24.2564 48.5135 23.8564 48.8668 23.7564 48.9107C22.9955 49.242 22.5549 48.5795 22.4924 47.8887C22.0689 43.1943 22.8127 37.8484 22.5095 33.085C22.708 31.672 24.2564 32.198 24.2564 32.7224V35.7776L24.4314 35.9534H27.3611C27.6283 35.9534 28.0658 35.4981 28.1158 35.1826C28.2424 34.3834 28.2252 31.4412 28.1127 30.617C27.7611 28.0265 23.7892 27.9998 21.8689 27.2917C19.8439 28.0861 16.8783 30.8352 14.7064 30.6657C12.7361 30.5118 9.93142 28.0108 8.02829 27.2666C6.14391 28.0955 2.70329 27.9213 1.93454 30.2009C1.6611 31.0095 1.64548 34.038 1.75329 34.9596C1.80173 35.3773 2.21735 35.9566 2.63454 35.9566H5.62204V32.8417C5.62204 32.7679 5.98454 32.3047 6.09235 32.2561C6.70017 31.9782 7.40016 32.4068 7.38766 33.0693L7.3736 48.2294C7.18766 49.4241 5.62204 48.9798 5.62204 48.3534V37.7181H2.69235V48.3534C2.69235 48.9641 1.19704 49.3943 0.95954 48.3283L0.94079 37.1828L-0.00296021 35.4856V30.4317H0.000164795ZM23.4377 9.51291V5.69308C23.4377 5.58475 23.0736 4.66787 22.9892 4.49673C22.2299 2.96283 20.6142 2.00199 18.9299 1.86854C17.2455 1.73509 13.7189 1.68328 12.1267 1.86854C11.3252 1.96274 11.3361 2.66453 10.8127 2.78071C10.2595 2.90317 9.67673 2.81525 9.0486 3.01151C7.8986 3.37261 6.44704 4.91593 6.44704 6.16094V9.50977C9.03923 9.90385 8.01735 8.41548 8.85641 7.16732C9.50798 6.19862 10.4361 6.02749 11.5283 6.11698C14.522 6.36348 17.7439 7.38241 20.772 7.65873C21.5892 7.90208 21.3345 8.40606 21.5892 8.95556C21.9533 9.74214 22.7299 9.47837 23.4377 9.50977V9.51291ZM10.6283 7.89109C10.1127 8.0481 10.2549 8.80013 10.1439 9.16751C9.83766 10.188 9.09391 11.0751 7.9986 11.2478C7.24548 11.3655 5.3736 11.017 5.50798 12.3813C5.65485 13.8681 7.42204 12.8774 8.08923 13.5635C8.3861 13.8681 8.36423 15.0079 8.47048 15.5308C9.55173 20.8735 16.4158 22.7088 19.9799 18.564C21.3283 16.9956 21.2517 16.0599 21.5877 14.1821C21.8752 12.5713 24.0158 13.832 24.3486 12.7204C24.8627 10.995 22.7486 11.3922 21.8814 11.2478C20.8236 11.0719 20.2174 10.1488 19.722 9.30096L11.4095 7.88482C11.1642 7.8644 10.8611 7.82044 10.6267 7.89267L10.6283 7.89109ZM17.8127 22.0871C15.9892 22.7858 13.8924 22.7308 12.0705 22.0871V24.6133C12.0705 24.7734 11.6674 25.5364 11.533 25.7201C11.2564 26.0969 10.8783 26.2995 10.5502 26.6119C11.6486 27.1316 13.9174 28.97 15.0549 28.9088C16.258 28.8444 18.2345 27.0578 19.4533 26.67C19.2314 26.3481 18.8564 26.2586 18.5814 25.9588C18.2924 25.6448 17.8127 24.6666 17.8127 24.2616V22.0871Z" fill="#2283B2"/>
<path d="M60 48.4108C59.5109 49.2398 58.4906 49.2068 58.2484 48.2271C57.9984 44.7841 58.5562 40.9281 58.2469 37.5353C57.9562 34.3592 53.6469 34.5178 51.3641 33.5193C48.6391 34.8836 45.6953 35.2478 42.7469 34.3938C42.289 34.2619 40.7375 33.5083 40.5078 33.5161C40.039 33.5318 36.1734 34.7564 35.5625 35.0108C34.6844 35.3766 33.8562 36.1977 33.75 37.1884C33.3891 40.5356 34.2141 44.839 33.7219 48.0889C33.5391 49.2931 32.0969 49.2774 31.9844 48.1251C32.2797 44.5721 31.6141 40.4352 31.9906 36.9529C32.4281 32.9211 37.9219 32.7688 40.8109 31.5787C41.5125 31.3715 41.5 29.2143 41.3062 28.7873C41.2422 28.6444 39.7328 27.3947 39.4312 27.0241C38.4281 25.7948 37.7828 24.1432 37.6109 22.5622C36.1781 22.6689 34.9266 21.5872 34.7984 20.1522C34.4328 16.0451 35.0453 12.0494 38.0219 9.03653C38.3297 8.72567 39.2375 8.15419 39.4281 7.86059C39.6297 7.54816 39.6469 6.87149 39.7906 6.46172C41.8594 0.51766 50.1141 0.558481 52.15 6.51353C52.2812 6.89818 52.3437 7.64864 52.4922 7.90299C52.5687 8.0333 53.1375 8.33945 53.3203 8.51215C55.5141 10.5799 56.9734 13.1955 57.1844 16.2711C57.275 17.5821 57.3891 20.4584 56.65 21.4914C56.075 22.2968 55.2344 22.5276 54.3062 22.6674C54.0406 25.1558 52.6609 27.3209 50.6406 28.7464C50.7156 29.734 50.2109 31.1721 51.325 31.6651C54.1281 32.9085 58.4578 32.6259 59.7031 36.0737L59.9969 37.0125V48.4124L60 48.4108ZM50.2734 6.57319C48.6328 2.90093 43.3547 2.82086 41.7187 6.51353L44.3734 5.88552C46.3875 5.52599 48.3672 5.94989 50.2734 6.57319ZM55.4281 17.2681C55.5453 9.91888 47.7812 5.11622 41.2875 8.7869C38.3562 10.4433 36.3234 13.8439 36.5625 17.2681C37.2109 16.8615 38.4375 17.2241 38.9703 16.9211C39.55 16.5914 39.425 15.8237 39.5719 15.2915C39.914 14.0433 41.0062 13.3745 42.2422 13.2677C44.1609 13.1029 47.8312 13.0997 49.7437 13.274C50.9375 13.3823 51.9906 14.059 52.35 15.2443C52.5547 15.9179 52.35 16.8834 53.2687 17.0263C53.9437 17.1315 54.75 16.9164 55.4281 17.2681ZM42.1562 15.0638C40.9984 15.2757 41.3375 16.3245 40.9906 17.1849C40.6781 17.962 39.8828 18.6277 39.0531 18.7675C38.2234 18.9072 35.8906 18.5649 36.6234 20.3202C37.0453 21.3328 39.0672 20.1302 39.3469 21.7018C39.5812 23.0175 39.4625 23.7051 40.175 24.9847C43.0812 30.2034 51.0297 29.1546 52.3984 23.3362C52.5172 22.8306 52.5875 21.3909 52.7953 21.1492C53.4516 20.3877 55.2062 21.3674 55.4062 19.9983C55.6281 18.4691 53.6797 18.9103 52.8203 18.7675C52.1015 18.6481 51.3125 17.9495 51.0078 17.2948C50.5078 16.2225 51.1094 15.18 49.5156 15.0308C47.1953 14.8142 44.514 15.1784 42.1562 15.0638ZM48.8672 29.6084C47.0641 30.3023 44.9266 30.34 43.1266 29.6084C43.1656 30.5692 43.1281 31.5677 42.5422 32.3716C44.6359 33.3528 47.3578 33.3544 49.4515 32.3716C49.2797 32.213 48.8672 31.4798 48.8672 31.3134V29.6099V29.6084Z" fill="#2283B2"/>
<path d="M54.1062 39.7398C54.775 39.5388 55.2391 39.9501 55.3156 40.5939C55.5937 42.9379 55.1094 45.8251 55.3062 48.2288C55.1453 49.2587 53.6875 49.2917 53.5531 48.1205C53.2812 45.756 53.7672 42.8923 53.55 40.473C53.5281 40.2202 53.8906 39.8057 54.1078 39.7398H54.1062Z" fill="#2283B2"/>
<path d="M38.1703 48.7312C37.6765 49.2242 36.7531 48.9573 36.6734 48.2413C36.9453 45.8408 36.3266 42.6756 36.6875 40.3693C36.8375 39.4116 38.2922 39.4037 38.4375 40.7147C38.6141 42.2957 38.6156 46.4233 38.4406 48.0043C38.4187 48.1989 38.3 48.6024 38.1703 48.7327V48.7312Z" fill="#2283B2"/>
<path d="M13.0922 15.9987C13.5937 15.8496 14.3094 16.3237 14.9391 16.3378C15.6562 16.352 16.8812 15.5403 17.2562 16.3583C17.9484 17.8686 15.4641 18.1873 14.4734 18.0915C13.9047 18.0366 12.6906 17.71 12.5594 17.0663C12.4828 16.688 12.7172 16.1118 13.0922 16.0003V15.9987Z" fill="#2283B2"/>
<path d="M12.7391 13.9437C12.525 14.1164 12.0609 14.1494 11.8016 14.0724C10.7422 13.7569 11.1609 10.5839 12.6484 11.5777C13.1625 11.92 13.1563 13.6062 12.7391 13.9437Z" fill="#2283B2"/>
<path d="M17.661 11.4137C18.9125 11.2174 18.861 13.629 18.3266 13.9665C16.7125 14.987 16.3031 11.6272 17.661 11.4137Z" fill="#2283B2"/>
<path d="M43.7453 24.9914C43.3688 24.5345 43.575 23.5988 44.2484 23.4999C44.8469 23.4119 45.5125 24.007 46.5547 23.8217C47.1141 23.7228 47.5969 23.1482 48.1672 23.7888C49.0391 24.7684 47.5219 25.4922 46.6906 25.6037C46.0141 25.6932 44.2047 25.5487 43.7469 24.993L43.7453 24.9914Z" fill="#2283B2"/>
<path d="M44.0844 20.6979C43.9125 20.8439 44.0578 21.6226 43.1859 21.6289C42.2297 21.6352 42.5047 21.0072 42.1859 20.7387C41.8891 20.4891 41.3906 20.6916 41.3609 19.9113C41.3375 19.3037 41.6922 19.0054 42.2578 18.9253C43.0109 18.8186 45.2141 18.7417 44.9828 20.0024C44.8578 20.6822 44.2281 20.577 44.0844 20.6979Z" fill="#2283B2"/>
<path d="M49.7094 20.6979C49.5375 20.8439 49.6828 21.6226 48.8109 21.6289C47.8547 21.6352 48.1297 21.0072 47.8109 20.7387C47.5141 20.4891 47.0156 20.6916 46.9859 19.9113C46.9625 19.3037 47.3172 19.0054 47.8828 18.9253C48.6359 18.8186 50.8391 18.7417 50.6078 20.0024C50.4828 20.6822 49.8531 20.577 49.7094 20.6979Z" fill="#2283B2"/>
</g>
<defs>
<clipPath id="clip0_3194_780">
<rect width="60" height="49" fill="white"/>
</clipPath>
</defs>
</svg>
