<svg width="20" height="16" viewBox="0 0 20 16" fill="none" xmlns="http://www.w3.org/2000/svg">
<path d="M18.3592 8.446H18.0223C12.2476 8.446 6.47372 8.446 0.699077 8.446C0.215206 8.446 -0.00666287 8.28507 0.000152214 7.93832C0.0069673 7.59987 0.215963 7.45221 0.68999 7.45221C6.47372 7.45221 12.2575 7.45221 18.042 7.45221H18.4251C18.3153 7.32363 18.2487 7.24151 18.1783 7.16436C16.3117 5.1212 14.4451 3.07803 12.5778 1.03487C12.5179 0.969338 12.4536 0.906293 12.3998 0.834952C12.2234 0.601021 12.231 0.328931 12.4134 0.138137C12.5876 -0.0435331 12.8269 -0.0468513 13.0306 0.133159C13.0821 0.178784 13.1268 0.232705 13.1737 0.283307C15.3492 2.66243 17.5248 5.04073 19.7003 7.41986C20.1001 7.85703 20.1001 8.04202 19.7033 8.47587C17.5285 10.855 15.353 13.2341 13.1767 15.6108C13.0972 15.697 13.0109 15.7833 12.914 15.8422C12.7232 15.9575 12.5422 15.9036 12.3975 15.7393C12.2529 15.5743 12.2166 15.3727 12.3271 15.1703C12.3839 15.0658 12.4672 14.9762 12.5475 14.8891C14.4216 12.8393 16.2958 10.7903 18.1722 8.74215C18.2441 8.66334 18.3305 8.6003 18.41 8.52979C18.3933 8.50158 18.3759 8.47338 18.3592 8.44517V8.446Z" fill="white"/>
</svg>
