<svg width="59" height="49" viewBox="0 0 59 49" fill="none" xmlns="http://www.w3.org/2000/svg">
<g clip-path="url(#clip0_3166_1217)">
<path d="M0 19.3452C0.276309 18.8652 0.438843 18.253 0.828926 17.922C1.36529 17.4421 2.06419 17.1608 2.69807 16.7967C2.74683 16.8463 2.81185 16.896 2.86061 16.9456C2.86061 16.7139 2.86061 16.4823 2.86061 16.2671C2.86061 12.4775 2.86061 8.67139 2.86061 4.8818C2.86061 2.53191 4.12838 0.794326 6.30634 0.198582C6.77769 0.0661938 7.2978 0.0165485 7.7854 0.0165485C20.1543 0 32.5394 0 44.9083 0C47.3625 0 49.1179 1.30733 49.6868 3.57447C49.8168 4.10402 49.8331 4.65012 49.8331 5.19622C49.8331 12.7258 49.8331 20.2553 49.8331 27.7849C49.8331 28.0331 49.8331 28.2813 49.8331 28.5461C50.3207 28.6454 50.7433 28.7116 51.1658 28.8109C51.8972 28.9764 52.2061 29.3404 52.0923 29.9031C51.9948 30.4492 51.5234 30.6809 50.8245 30.5319C48.5978 30.0686 46.5174 30.383 44.5669 31.6076C41.6413 33.4444 40.0972 37.1182 40.8287 40.5272C41.6088 44.1017 44.5019 46.7991 48.0127 47.1797C51.686 47.5768 55.0342 45.6241 56.562 42.2151C58.0248 38.9385 57.2121 35.0662 54.5628 32.5508C54.4653 32.4515 54.3678 32.3688 54.2702 32.2695C53.9289 31.8723 53.9127 31.3924 54.2215 31.0449C54.5466 30.6643 55.0667 30.5981 55.4405 31.0118C56.2044 31.8392 57.0333 32.6336 57.5697 33.5934C61.503 40.4444 56.7895 48.8842 49.0041 49C47.0212 49.0331 45.1846 48.4374 43.4942 47.3617C43.1854 47.1631 42.7953 47.0473 42.4377 47.0473C33.0595 47.0307 23.6975 47.0473 14.3193 47.0473C14.0917 47.0473 13.8479 47.0473 13.6366 47.0142C13.1978 46.9149 12.9377 46.6005 12.9702 46.1206C12.9865 45.6738 13.2466 45.3924 13.6691 45.3097C13.8967 45.26 14.1242 45.2766 14.3518 45.2766C23.0311 45.2766 31.7105 45.2766 40.3898 45.2766H41.1537C38.797 42 38.1956 38.5248 39.7234 34.8345C41.2512 31.1442 44.1444 29.1584 48.0452 28.5792V12.3286H4.63223V16.9622C5.31488 16.9622 6.01377 16.9622 6.69642 16.9622C8.93939 16.9622 10.0771 18.1206 10.0771 20.4374C10.0771 20.8676 10.0771 21.2979 10.0284 21.7281C9.88209 23.234 8.71185 24.3428 7.23278 24.3924C6.37135 24.4255 5.50992 24.3924 4.63223 24.3924V28.5792C5.42865 28.5792 6.24132 28.5626 7.03774 28.5792C8.5168 28.6123 9.70331 29.4066 9.93085 30.7636C10.1096 31.7565 10.0934 32.8322 9.93085 33.8416C9.70331 35.1489 8.53306 35.9764 7.20028 36.0095C6.3551 36.026 5.50992 36.0095 4.59972 36.0095C4.59972 36.4563 4.59972 36.87 4.59972 37.2671C4.59972 38.9054 4.59972 40.5603 4.59972 42.1986C4.59972 44.0686 5.78623 45.26 7.63912 45.2766C8.38678 45.2766 9.13444 45.2766 9.88209 45.2766C10.4835 45.2766 10.841 45.6076 10.8573 46.1206C10.8736 46.6667 10.4997 47.0307 9.88209 47.0307C8.89063 47.0307 7.88292 47.0804 6.89146 46.9645C4.53471 46.6832 2.90937 44.8132 2.87686 42.3806C2.84435 40.4775 2.87686 38.591 2.87686 36.6879C2.87686 36.4728 2.87686 36.2577 2.87686 36.026C1.34904 35.9102 0.503857 34.9835 0 33.6596C0 32.766 0 31.8558 0 30.9622C0.406336 30.3664 0.715152 29.6714 1.21901 29.1915C1.62534 28.8109 2.25923 28.6785 2.84435 28.4303V24.4255C1.93416 24.3262 1.15399 23.9787 0.617631 23.2175C0.373829 22.8369 0.211295 22.4232 0 22.0426C0 21.1489 0 20.2388 0 19.3452ZM48.0614 7.28132C48.0614 6.18913 48.1264 5.19622 48.0452 4.20331C47.9152 2.7305 46.6149 1.75414 44.892 1.75414C32.5394 1.75414 20.1868 1.75414 7.85041 1.75414C7.55785 1.75414 7.28154 1.77069 6.98898 1.82033C5.78623 2.01891 4.79477 2.94563 4.66474 4.17021C4.56722 5.16312 4.64848 6.18913 4.64848 7.26478C4.90854 7.26478 5.15234 7.26478 5.39614 7.26478C16.1559 7.26478 26.8995 7.26478 37.6592 7.26478C37.9518 7.26478 38.2931 7.21513 38.5044 7.36407C38.7645 7.5461 39.0083 7.89362 39.057 8.20804C39.122 8.62175 38.797 8.93617 38.3581 8.98582C38.1306 9.01891 37.903 9.00236 37.6755 9.00236C26.9157 9.00236 16.1722 9.00236 5.4124 9.00236C5.16859 9.00236 4.92479 9.00236 4.64848 9.00236V10.4586H48.0777V9.00236C47.8339 9.00236 47.6226 9.00236 47.4113 9.00236C45.6397 9.00236 43.8843 9.00236 42.1127 9.00236C41.5438 9.00236 41.1862 8.68794 41.1537 8.20804C41.1212 7.69504 41.4625 7.33097 42.0477 7.26478C42.259 7.24823 42.4702 7.26478 42.6815 7.26478C44.4694 7.26478 46.241 7.26478 48.0777 7.26478L48.0614 7.28132ZM5.03857 22.6383C5.72121 22.6383 6.42011 22.6548 7.10275 22.6383C7.81791 22.6052 8.25675 22.208 8.32176 21.4965C8.37052 20.9669 8.37052 20.4374 8.32176 19.9243C8.25675 19.1962 7.85041 18.766 7.13526 18.7494C5.73747 18.7163 4.33967 18.7163 2.94187 18.7494C2.19421 18.766 1.77163 19.2459 1.72286 20.0236C1.70661 20.4374 1.72286 20.8511 1.72286 21.2482C1.73912 22.1418 2.21047 22.6217 3.08815 22.6383C3.73829 22.6383 4.38843 22.6383 5.03857 22.6383ZM5.03857 34.2553C5.67245 34.2553 6.30634 34.2553 6.94022 34.2553C6.97273 34.2553 7.02149 34.2553 7.054 34.2553C7.81791 34.2222 8.273 33.8085 8.33802 33.0307C8.37052 32.5343 8.37052 32.0213 8.33802 31.5083C8.273 30.7801 7.86667 30.3664 7.15152 30.3499C5.75372 30.3168 4.35592 30.3168 2.95813 30.3499C2.21047 30.3664 1.78788 30.8463 1.75537 31.6241C1.73912 32.0378 1.75537 32.4515 1.75537 32.8487C1.77163 33.7423 2.24298 34.2222 3.12066 34.2388C3.7708 34.2388 4.42094 34.2388 5.07107 34.2388L5.03857 34.2553Z" fill="#2283B2"/>
<path d="M31.4829 18.7166C31.1578 18.7166 30.8815 18.7166 30.589 18.7166C29.0774 18.7166 27.5496 18.7166 26.038 18.7166C25.8105 18.7166 25.5667 18.7166 25.3554 18.6504C24.9328 18.5345 24.7377 18.2036 24.7702 17.7568C24.8027 17.343 25.0303 17.0121 25.4366 16.9955C27.8909 16.9624 30.3452 16.9624 32.7994 16.9955C33.3846 16.9955 33.6446 17.5747 33.4496 18.2367C32.9457 19.8915 32.4256 21.5464 31.9218 23.2012C31.0766 25.9317 30.2314 28.6787 29.3862 31.4092C29.3375 31.5747 29.2887 31.7568 29.2074 31.9057C28.9799 32.3194 28.6223 32.4683 28.1835 32.336C27.7771 32.2036 27.5658 31.8726 27.6146 31.4258C27.6471 31.161 27.7284 30.8962 27.8096 30.6315C28.9799 26.875 30.1339 23.1185 31.3041 19.362C31.3529 19.1799 31.4016 18.9979 31.4667 18.7166H31.4829Z" fill="#2283B2"/>
<path d="M23.2262 42.9435C22.4948 42.9435 21.7634 42.9435 21.032 42.9435C20.3656 42.9435 20.0405 42.6291 20.0405 41.9341C20.0405 40.4282 20.0405 38.9223 20.0405 37.4163C20.0405 36.7379 20.3493 36.4069 21.032 36.3903C22.511 36.3738 23.9901 36.3738 25.4691 36.3903C26.1355 36.3903 26.4606 36.7379 26.4769 37.4163C26.4931 38.9223 26.4931 40.4282 26.4769 41.9341C26.4769 42.6457 26.1355 42.927 25.4204 42.9435C24.689 42.9435 23.9576 42.9435 23.2262 42.9435ZM24.689 41.1563V38.2107H21.7959V41.1563H24.689Z" fill="#2283B2"/>
<path d="M32.3606 42.9435C31.6292 42.9435 30.8978 42.9435 30.1664 42.9435C29.5 42.9435 29.1749 42.6126 29.1587 41.9341C29.1587 40.4282 29.1587 38.9223 29.1587 37.4163C29.1587 36.7379 29.4838 36.4069 30.1664 36.3903C31.6455 36.3738 33.1245 36.3738 34.6036 36.3903C35.3025 36.3903 35.5951 36.7544 35.6113 37.466C35.6113 38.9388 35.6113 40.3951 35.6113 41.8679C35.6113 42.6291 35.3025 42.927 34.5548 42.9435C33.8234 42.9435 33.092 42.9435 32.3606 42.9435ZM33.8397 41.1563V38.1941H30.9303V41.1563H33.8397Z" fill="#2283B2"/>
<path d="M14.0917 42.9436C13.3603 42.9436 12.6289 42.9436 11.8975 42.9436C11.2149 42.9436 10.9061 42.6292 10.8898 41.9507C10.8736 40.4448 10.8736 38.9389 10.8898 37.4329C10.8898 36.7379 11.1986 36.4069 11.865 36.4069C13.3441 36.3904 14.8231 36.3904 16.3022 36.4069C16.9849 36.4069 17.2937 36.7379 17.3099 37.4164C17.3099 38.9223 17.3099 40.4282 17.3099 41.9341C17.3099 42.6457 16.9849 42.9436 16.2697 42.9601C15.5383 42.9601 14.8069 42.9601 14.0755 42.9601L14.0917 42.9436ZM12.6614 38.1776V41.1398H15.5546V38.1776H12.6614Z" fill="#2283B2"/>
<path d="M22.7061 24.6572C22.7061 26.8581 22.7061 29.0756 22.7061 31.2766C22.7061 31.7896 22.576 32.2198 22.0234 32.3522C21.5196 32.4846 21.0807 32.1536 20.9994 31.591C20.9669 31.3096 20.9832 31.0118 20.9832 30.7139C20.9832 26.6099 20.9832 22.5059 20.9832 18.4018C20.9832 18.2198 20.9832 18.0543 20.9832 17.8723C21.0319 17.2766 21.3733 16.929 21.8934 16.9621C22.381 16.9787 22.7061 17.3427 22.7061 17.9054C22.7061 20.007 22.7061 22.1253 22.7061 24.2269C22.7061 24.3593 22.7061 24.5082 22.7061 24.6406V24.6572Z" fill="#2283B2"/>
<path d="M48.0939 36.4733C48.0939 35.4307 48.0939 34.3716 48.0939 33.329C48.0939 32.3858 48.3865 31.939 48.9716 31.9555C49.5567 31.9555 49.8168 32.3858 49.8168 33.2959C49.8168 35.017 49.8168 36.738 49.8168 38.4591C49.8168 38.9224 49.7843 39.3858 49.2804 39.5844C48.7928 39.7829 48.4353 39.5182 48.1102 39.1707C47.5088 38.5418 46.8912 37.9295 46.2736 37.3007C45.786 36.7877 45.7372 36.3078 46.1273 35.9106C46.5011 35.53 47.005 35.5631 47.4926 36.0595C47.6388 36.2085 47.7526 36.3905 47.8826 36.5725C47.9477 36.5394 48.0127 36.5064 48.0777 36.4733H48.0939Z" fill="#2283B2"/>
</g>
<defs>
<clipPath id="clip0_3166_1217">
<rect width="59" height="49" fill="white"/>
</clipPath>
</defs>
</svg>
