<svg width="1233" height="158" viewBox="0 0 1233 158" fill="none" xmlns="http://www.w3.org/2000/svg">
<mask id="path-1-outside-1_2670_373" maskUnits="userSpaceOnUse" x="-3" y="-3" width="1239" height="164" fill="black">
<rect fill="white" x="-3" y="-3" width="1239" height="164"/>
<path d="M60.5217 157.749C43.3497 157.749 28.9867 152.184 17.4327 141.054C5.8787 129.818 0.1017 115.349 0.1017 97.647C0.1017 79.839 5.9847 65.211 17.7507 53.763C29.6227 42.209 43.9857 36.432 60.8397 36.432C71.3337 36.432 81.0857 38.658 90.0957 43.11C99.1057 47.456 106.208 53.339 111.402 60.759L95.6607 76.182C86.4387 64.84 75.2557 59.169 62.1117 59.169C51.5117 59.169 42.6077 62.826 35.3997 70.14C28.1917 77.348 24.5877 86.517 24.5877 97.647C24.5877 108.459 28.1387 117.416 35.2407 124.518C42.3427 131.62 51.2467 135.171 61.9527 135.171C75.6267 135.171 87.0217 129.447 96.1377 117.999L112.356 132.786C106.844 140.312 99.4767 146.354 90.2547 150.912C81.1387 155.47 71.2277 157.749 60.5217 157.749ZM181.025 157.908C163.535 157.908 149.013 152.131 137.459 140.577C125.799 128.917 119.969 114.607 119.969 97.647C119.969 80.581 125.852 66.112 137.618 54.24C149.49 42.368 164.012 36.432 181.184 36.432C198.356 36.432 212.825 42.368 224.591 54.24C236.463 66.112 242.399 80.475 242.399 97.329C242.399 114.183 236.463 128.493 224.591 140.259C212.825 152.025 198.303 157.908 181.025 157.908ZM217.913 97.329C217.913 86.517 214.362 77.56 207.26 70.458C200.052 63.25 191.36 59.646 181.184 59.646C171.008 59.646 162.316 63.25 155.108 70.458C148.006 77.56 144.455 86.517 144.455 97.329C144.455 108.035 147.953 116.939 154.949 124.041C162.051 131.143 170.796 134.694 181.184 134.694C191.572 134.694 200.317 131.143 207.419 124.041C214.521 116.939 218.019 108.035 217.913 97.329ZM338.539 111.162V38.499H361.753V156H345.694L284.797 83.973V156H261.583V38.499H276.529L338.539 111.162ZM410.558 156V61.236H377.009V38.499H467.957V61.236H434.408V156H410.558ZM515.541 0.656991H541.458L525.876 29.754H505.206L515.541 0.656991ZM568.488 156H543.684L534.939 130.56H493.917L484.854 156H460.209L505.047 38.499H524.286L568.488 156ZM528.261 109.572L514.587 70.458L500.595 109.572H528.261ZM632.083 157.749C614.911 157.749 600.548 152.184 588.994 141.054C577.44 129.818 571.663 115.349 571.663 97.647C571.663 79.839 577.546 65.211 589.312 53.763C601.184 42.209 615.547 36.432 632.401 36.432C642.895 36.432 652.647 38.658 661.657 43.11C670.667 47.456 677.769 53.339 682.963 60.759L667.222 76.182C658 64.84 646.817 59.169 633.673 59.169C623.073 59.169 614.169 62.826 606.961 70.14C599.753 77.348 596.149 86.517 596.149 97.647C596.149 108.459 599.7 117.416 606.802 124.518C613.904 131.62 622.808 135.171 633.514 135.171C647.188 135.171 658.583 129.447 667.699 117.999L683.917 132.786C678.405 140.312 671.038 146.354 661.816 150.912C652.7 155.47 642.789 157.749 632.083 157.749ZM722.657 156V61.236H689.108V38.499H780.056V61.236H746.507V156H722.657ZM880.588 156H855.784L847.039 130.56H806.017L796.954 156H772.309L817.147 38.499H836.386L880.588 156ZM840.361 109.572L826.687 70.458L812.695 109.572H840.361ZM971.9 111.162V38.499H995.114V156H979.055L918.158 83.973V156H894.944V38.499H909.89L971.9 111.162ZM1075.4 157.908C1057.91 157.908 1043.39 152.131 1031.83 140.577C1020.17 128.917 1014.34 114.607 1014.34 97.647C1014.34 80.581 1020.23 66.112 1031.99 54.24C1043.87 42.368 1058.39 36.432 1075.56 36.432C1092.73 36.432 1107.2 42.368 1118.97 54.24C1130.84 66.112 1136.77 80.475 1136.77 97.329C1136.77 114.183 1130.84 128.493 1118.97 140.259C1107.2 152.025 1092.68 157.908 1075.4 157.908ZM1112.29 97.329C1112.29 86.517 1108.74 77.56 1101.64 70.458C1094.43 63.25 1085.74 59.646 1075.56 59.646C1065.38 59.646 1056.69 63.25 1049.48 70.458C1042.38 77.56 1038.83 86.517 1038.83 97.329C1038.83 108.035 1042.33 116.939 1049.32 124.041C1056.43 131.143 1065.17 134.694 1075.56 134.694C1085.95 134.694 1094.69 131.143 1101.79 124.041C1108.9 116.939 1112.39 108.035 1112.29 97.329ZM1189.37 157.908C1180.15 157.908 1171.62 156 1163.78 152.184C1155.93 148.368 1149.62 142.962 1144.85 135.966L1158.37 119.589C1166.21 130.507 1176.6 135.966 1189.53 135.966C1194.41 135.966 1198.44 134.8 1201.62 132.468C1204.8 130.136 1206.39 127.115 1206.39 123.405C1206.39 118.529 1202.84 114.448 1195.73 111.162C1194.89 110.738 1191.02 109.201 1184.13 106.551C1178.72 104.431 1174.11 102.311 1170.29 100.191C1157.89 93.089 1151.69 83.337 1151.69 70.935C1151.69 61.077 1155.4 52.915 1162.82 46.449C1170.35 39.877 1179.99 36.591 1191.76 36.591C1207.02 36.591 1219.9 41.891 1230.4 52.491L1217.84 69.663C1214.66 66.271 1210.68 63.621 1205.91 61.713C1201.25 59.699 1196.64 58.692 1192.08 58.692C1187.41 58.692 1183.7 59.752 1180.95 61.872C1178.3 63.886 1176.97 66.589 1176.97 69.981C1176.97 74.539 1180.15 78.408 1186.51 81.588L1198.12 86.676C1204.69 89.432 1209.46 91.499 1212.43 92.877C1225.79 99.343 1232.46 109.095 1232.46 122.133C1232.46 132.627 1228.49 141.213 1220.54 147.891C1212.59 154.569 1202.2 157.908 1189.37 157.908Z"/>
</mask>
<path d="M17.4327 141.054L15.3412 143.205L15.3463 143.21L15.3514 143.215L17.4327 141.054ZM17.7507 53.763L19.8428 55.9132L19.843 55.9129L17.7507 53.763ZM90.0957 43.11L88.7667 45.7996L88.7795 45.8059L88.7923 45.8121L90.0957 43.11ZM111.402 60.759L113.501 62.9018L115.318 61.122L113.859 59.0386L111.402 60.759ZM95.6607 76.182L93.333 78.0746L95.4094 80.6283L97.7603 78.3249L95.6607 76.182ZM35.3997 70.14L37.521 72.2613L37.5288 72.2536L37.5364 72.2458L35.3997 70.14ZM96.1377 117.999L98.159 115.782L95.7888 113.621L93.7909 116.13L96.1377 117.999ZM112.356 132.786L114.776 134.559L116.368 132.385L114.377 130.569L112.356 132.786ZM90.2547 150.912L88.9254 148.223L88.9131 148.229L90.2547 150.912ZM60.5217 154.749C44.0658 154.749 30.4671 149.445 19.514 138.893L15.3514 143.215C27.5063 154.923 42.6336 160.749 60.5217 160.749V154.749ZM19.5242 138.903C8.61122 128.291 3.1017 114.627 3.1017 97.647H-2.8983C-2.8983 116.071 3.14618 131.345 15.3412 143.205L19.5242 138.903ZM3.1017 97.647C3.1017 80.5728 8.70958 66.7455 19.8428 55.9132L15.6586 51.6128C3.25982 63.6765 -2.8983 79.1052 -2.8983 97.647H3.1017ZM19.843 55.9129C31.1442 44.9145 44.7521 39.432 60.8397 39.432V33.432C43.2193 33.432 28.1012 39.5035 15.6584 51.6131L19.843 55.9129ZM60.8397 39.432C70.8937 39.432 80.1884 41.5609 88.7667 45.7996L91.4247 40.4204C81.983 35.7551 71.7737 33.432 60.8397 33.432V39.432ZM88.7923 45.8121C97.3893 49.9589 104.074 55.5228 108.944 62.4794L113.859 59.0386C108.341 51.1552 100.822 44.9531 91.3991 40.4079L88.7923 45.8121ZM109.302 58.6161L93.5611 74.0391L97.7603 78.3249L113.501 62.9018L109.302 58.6161ZM97.9884 74.2894C88.2691 62.3358 76.2676 56.169 62.1117 56.169V62.169C74.2438 62.169 84.6083 67.3441 93.333 78.0746L97.9884 74.2894ZM62.1117 56.169C50.7375 56.169 41.0548 60.1278 33.263 68.0342L37.5364 72.2458C44.1606 65.5242 52.2859 62.169 62.1117 62.169V56.169ZM33.2784 68.0187C25.4533 75.8437 21.5877 85.8018 21.5877 97.647H27.5877C27.5877 87.2322 30.9301 78.8523 37.521 72.2613L33.2784 68.0187ZM21.5877 97.647C21.5877 109.187 25.4089 118.929 33.1194 126.639L37.362 122.397C30.8685 115.903 27.5877 107.731 27.5877 97.647H21.5877ZM33.1194 126.639C40.8238 134.344 50.5092 138.171 61.9527 138.171V132.171C51.9842 132.171 43.8616 128.896 37.362 122.397L33.1194 126.639ZM61.9527 138.171C76.6118 138.171 88.8453 131.973 98.4846 119.868L93.7909 116.13C85.1981 126.921 74.6416 132.171 61.9527 132.171V138.171ZM94.1164 120.216L110.334 135.003L114.377 130.569L98.159 115.782L94.1164 120.216ZM109.935 131.013C104.737 138.112 97.7606 143.856 88.9254 148.223L91.584 153.601C101.193 148.852 108.951 142.512 114.776 134.559L109.935 131.013ZM88.9131 148.229C80.2347 152.568 70.7861 154.749 60.5217 154.749V160.749C71.6693 160.749 82.0427 158.372 91.5964 153.595L88.9131 148.229ZM137.459 140.577L135.338 142.698L137.459 140.577ZM137.618 54.24L135.497 52.1187L135.487 52.1282L137.618 54.24ZM224.591 54.24L222.46 56.3518L222.47 56.3613L224.591 54.24ZM224.591 140.259L222.479 138.128L222.47 138.138L224.591 140.259ZM217.913 97.329H214.913V97.3438L214.913 97.3587L217.913 97.329ZM155.108 70.458L152.987 68.3367L155.108 70.458ZM154.949 124.041L152.812 126.146L152.82 126.154L152.828 126.162L154.949 124.041ZM207.419 124.041L209.54 126.162L207.419 124.041ZM181.025 154.908C164.269 154.908 150.529 149.405 139.58 138.456L135.338 142.698C147.497 154.857 162.801 160.908 181.025 160.908V154.908ZM139.58 138.456C128.501 127.376 122.969 113.837 122.969 97.647H116.969C116.969 115.377 123.097 130.458 135.338 142.698L139.58 138.456ZM122.969 97.647C122.969 81.3534 128.553 67.6489 139.749 56.3518L135.487 52.1282C123.151 64.5751 116.969 79.8086 116.969 97.647H122.969ZM139.739 56.3613C151.035 45.0661 164.787 39.432 181.184 39.432V33.432C163.237 33.432 147.946 39.6699 135.497 52.1187L139.739 56.3613ZM181.184 39.432C197.58 39.432 211.275 45.0654 222.46 56.3518L226.722 52.1282C214.375 39.6706 199.132 33.432 181.184 33.432V39.432ZM222.47 56.3613C233.777 67.6683 239.399 81.2672 239.399 97.329H245.399C245.399 79.6828 239.149 64.5557 226.712 52.1187L222.47 56.3613ZM239.399 97.329C239.399 113.39 233.778 126.931 222.479 138.128L226.703 142.39C239.149 130.055 245.399 114.976 245.399 97.329H239.399ZM222.47 138.138C211.29 149.317 197.541 154.908 181.025 154.908V160.908C199.065 160.908 214.36 154.733 226.712 142.38L222.47 138.138ZM220.913 97.329C220.913 85.7886 217.092 76.0471 209.381 68.3367L205.139 72.5793C211.632 79.0729 214.913 87.2454 214.913 97.329H220.913ZM209.381 68.3367C201.612 60.5672 192.157 56.646 181.184 56.646V62.646C190.563 62.646 198.492 65.9328 205.139 72.5793L209.381 68.3367ZM181.184 56.646C170.211 56.646 160.756 60.5672 152.987 68.3367L157.229 72.5793C163.876 65.9328 171.805 62.646 181.184 62.646V56.646ZM152.987 68.3367C145.276 76.0471 141.455 85.7886 141.455 97.329H147.455C147.455 87.2454 150.736 79.0729 157.229 72.5793L152.987 68.3367ZM141.455 97.329C141.455 108.759 145.219 118.439 152.812 126.146L157.086 121.936C150.687 115.439 147.455 107.311 147.455 97.329H141.455ZM152.828 126.162C160.514 133.848 170.031 137.694 181.184 137.694V131.694C171.561 131.694 163.589 128.438 157.07 121.92L152.828 126.162ZM181.184 137.694C192.337 137.694 201.855 133.848 209.54 126.162L205.298 121.92C198.78 128.438 190.807 131.694 181.184 131.694V137.694ZM209.54 126.162C217.253 118.45 221.026 108.752 220.913 97.2993L214.913 97.3587C215.012 107.318 211.789 115.428 205.298 121.92L209.54 126.162ZM338.539 111.162L336.257 113.109L341.539 119.299V111.162H338.539ZM338.539 38.499V35.499H335.539V38.499H338.539ZM361.753 38.499H364.753V35.499H361.753V38.499ZM361.753 156V159H364.753V156H361.753ZM345.694 156L343.403 157.937L344.302 159H345.694V156ZM284.797 83.973L287.088 82.0361L281.797 75.7781V83.973H284.797ZM284.797 156V159H287.797V156H284.797ZM261.583 156H258.583V159H261.583V156ZM261.583 38.499V35.499H258.583V38.499H261.583ZM276.529 38.499L278.811 36.5516L277.913 35.499H276.529V38.499ZM341.539 111.162V38.499H335.539V111.162H341.539ZM338.539 41.499H361.753V35.499H338.539V41.499ZM358.753 38.499V156H364.753V38.499H358.753ZM361.753 153H345.694V159H361.753V153ZM347.985 154.063L287.088 82.0361L282.507 85.9099L343.403 157.937L347.985 154.063ZM281.797 83.973V156H287.797V83.973H281.797ZM284.797 153H261.583V159H284.797V153ZM264.583 156V38.499H258.583V156H264.583ZM261.583 41.499H276.529V35.499H261.583V41.499ZM274.247 40.4464L336.257 113.109L340.821 109.215L278.811 36.5516L274.247 40.4464ZM410.558 156H407.558V159H410.558V156ZM410.558 61.236H413.558V58.236H410.558V61.236ZM377.009 61.236H374.009V64.236H377.009V61.236ZM377.009 38.499V35.499H374.009V38.499H377.009ZM467.957 38.499H470.957V35.499H467.957V38.499ZM467.957 61.236V64.236H470.957V61.236H467.957ZM434.408 61.236V58.236H431.408V61.236H434.408ZM434.408 156V159H437.408V156H434.408ZM413.558 156V61.236H407.558V156H413.558ZM410.558 58.236H377.009V64.236H410.558V58.236ZM380.009 61.236V38.499H374.009V61.236H380.009ZM377.009 41.499H467.957V35.499H377.009V41.499ZM464.957 38.499V61.236H470.957V38.499H464.957ZM467.957 58.236H434.408V64.236H467.957V58.236ZM431.408 61.236V156H437.408V61.236H431.408ZM434.408 153H410.558V159H434.408V153ZM515.541 0.656991V-2.34301H513.423L512.714 -0.347124L515.541 0.656991ZM541.458 0.656991L544.103 2.07325L546.468 -2.34301H541.458V0.656991ZM525.876 29.754V32.754H527.673L528.521 31.1703L525.876 29.754ZM505.206 29.754L502.379 28.7499L500.957 32.754H505.206V29.754ZM568.488 156V159H572.822L571.296 154.944L568.488 156ZM543.684 156L540.847 156.975L541.543 159H543.684V156ZM534.939 130.56L537.776 129.585L537.08 127.56H534.939V130.56ZM493.917 130.56V127.56H491.801L491.091 129.553L493.917 130.56ZM484.854 156V159H486.97L487.68 157.007L484.854 156ZM460.209 156L457.406 154.93L455.853 159H460.209V156ZM505.047 38.499V35.499H502.981L502.244 37.4294L505.047 38.499ZM524.286 38.499L527.094 37.4427L526.363 35.499H524.286V38.499ZM528.261 109.572V112.572H532.488L531.093 108.582L528.261 109.572ZM514.587 70.458L517.419 69.468L514.62 61.4603L511.763 69.4475L514.587 70.458ZM500.595 109.572L497.77 108.562L496.336 112.572H500.595V109.572ZM515.541 3.65699H541.458V-2.34301H515.541V3.65699ZM538.814 -0.759272L523.232 28.3377L528.521 31.1703L544.103 2.07325L538.814 -0.759272ZM525.876 26.754H505.206V32.754H525.876V26.754ZM508.033 30.7581L518.368 1.66111L512.714 -0.347124L502.379 28.7499L508.033 30.7581ZM568.488 153H543.684V159H568.488V153ZM546.521 155.025L537.776 129.585L532.102 131.535L540.847 156.975L546.521 155.025ZM534.939 127.56H493.917V133.56H534.939V127.56ZM491.091 129.553L482.028 154.993L487.68 157.007L496.743 131.567L491.091 129.553ZM484.854 153H460.209V159H484.854V153ZM463.012 157.07L507.85 39.5686L502.244 37.4294L457.406 154.93L463.012 157.07ZM505.047 41.499H524.286V35.499H505.047V41.499ZM521.478 39.5553L565.68 157.056L571.296 154.944L527.094 37.4427L521.478 39.5553ZM531.093 108.582L517.419 69.468L511.755 71.448L525.429 110.562L531.093 108.582ZM511.763 69.4475L497.77 108.562L503.42 110.582L517.412 71.4685L511.763 69.4475ZM500.595 112.572H528.261V106.572H500.595V112.572ZM588.994 141.054L586.903 143.205L586.908 143.21L586.913 143.215L588.994 141.054ZM589.312 53.763L591.404 55.9132L591.405 55.9129L589.312 53.763ZM661.657 43.11L660.328 45.7996L660.341 45.8059L660.354 45.8121L661.657 43.11ZM682.963 60.759L685.063 62.9018L686.879 61.122L685.421 59.0386L682.963 60.759ZM667.222 76.182L664.895 78.0746L666.971 80.6283L669.322 78.3249L667.222 76.182ZM606.961 70.14L609.083 72.2613L609.09 72.2536L609.098 72.2458L606.961 70.14ZM667.699 117.999L669.721 115.782L667.35 113.621L665.352 116.13L667.699 117.999ZM683.917 132.786L686.338 134.559L687.93 132.385L685.938 130.569L683.917 132.786ZM661.816 150.912L660.487 148.223L660.475 148.229L661.816 150.912ZM632.083 154.749C615.627 154.749 602.029 149.445 591.076 138.893L586.913 143.215C599.068 154.923 614.195 160.749 632.083 160.749V154.749ZM591.086 138.903C580.173 128.291 574.663 114.627 574.663 97.647H568.663C568.663 116.071 574.708 131.345 586.903 143.205L591.086 138.903ZM574.663 97.647C574.663 80.5728 580.271 66.7455 591.404 55.9132L587.22 51.6128C574.821 63.6765 568.663 79.1052 568.663 97.647H574.663ZM591.405 55.9129C602.706 44.9145 616.314 39.432 632.401 39.432V33.432C614.781 33.432 599.663 39.5035 587.22 51.6131L591.405 55.9129ZM632.401 39.432C642.455 39.432 651.75 41.5609 660.328 45.7996L662.986 40.4204C653.545 35.7551 643.335 33.432 632.401 33.432V39.432ZM660.354 45.8121C668.951 49.9589 675.636 55.5228 680.506 62.4794L685.421 59.0386C679.903 51.1552 672.384 44.9531 662.961 40.4079L660.354 45.8121ZM680.864 58.6161L665.123 74.0391L669.322 78.3249L685.063 62.9018L680.864 58.6161ZM669.55 74.2894C659.831 62.3358 647.829 56.169 633.673 56.169V62.169C645.805 62.169 656.17 67.3441 664.895 78.0746L669.55 74.2894ZM633.673 56.169C622.299 56.169 612.616 60.1278 604.824 68.0342L609.098 72.2458C615.722 65.5242 623.847 62.169 633.673 62.169V56.169ZM604.84 68.0187C597.015 75.8437 593.149 85.8018 593.149 97.647H599.149C599.149 87.2322 602.492 78.8523 609.083 72.2613L604.84 68.0187ZM593.149 97.647C593.149 109.187 596.97 118.929 604.681 126.639L608.924 122.397C602.43 115.903 599.149 107.731 599.149 97.647H593.149ZM604.681 126.639C612.385 134.344 622.071 138.171 633.514 138.171V132.171C623.546 132.171 615.423 128.896 608.924 122.397L604.681 126.639ZM633.514 138.171C648.173 138.171 660.407 131.973 670.046 119.868L665.352 116.13C656.76 126.921 646.203 132.171 633.514 132.171V138.171ZM665.678 120.216L681.896 135.003L685.938 130.569L669.721 115.782L665.678 120.216ZM681.497 131.013C676.298 138.112 669.322 143.856 660.487 148.223L663.146 153.601C672.754 148.852 680.512 142.512 686.338 134.559L681.497 131.013ZM660.475 148.229C651.796 152.568 642.348 154.749 632.083 154.749V160.749C643.231 160.749 653.604 158.372 663.158 153.595L660.475 148.229ZM722.657 156H719.657V159H722.657V156ZM722.657 61.236H725.657V58.236H722.657V61.236ZM689.108 61.236H686.108V64.236H689.108V61.236ZM689.108 38.499V35.499H686.108V38.499H689.108ZM780.056 38.499H783.056V35.499H780.056V38.499ZM780.056 61.236V64.236H783.056V61.236H780.056ZM746.507 61.236V58.236H743.507V61.236H746.507ZM746.507 156V159H749.507V156H746.507ZM725.657 156V61.236H719.657V156H725.657ZM722.657 58.236H689.108V64.236H722.657V58.236ZM692.108 61.236V38.499H686.108V61.236H692.108ZM689.108 41.499H780.056V35.499H689.108V41.499ZM777.056 38.499V61.236H783.056V38.499H777.056ZM780.056 58.236H746.507V64.236H780.056V58.236ZM743.507 61.236V156H749.507V61.236H743.507ZM746.507 153H722.657V159H746.507V153ZM880.588 156V159H884.922L883.396 154.944L880.588 156ZM855.784 156L852.947 156.975L853.643 159H855.784V156ZM847.039 130.56L849.876 129.585L849.18 127.56H847.039V130.56ZM806.017 130.56V127.56H803.901L803.191 129.553L806.017 130.56ZM796.954 156V159H799.07L799.78 157.007L796.954 156ZM772.309 156L769.506 154.93L767.953 159H772.309V156ZM817.147 38.499V35.499H815.081L814.344 37.4294L817.147 38.499ZM836.386 38.499L839.194 37.4427L838.463 35.499H836.386V38.499ZM840.361 109.572V112.572H844.588L843.193 108.582L840.361 109.572ZM826.687 70.458L829.519 69.468L826.719 61.4603L823.862 69.4475L826.687 70.458ZM812.695 109.572L809.87 108.562L808.435 112.572H812.695V109.572ZM880.588 153H855.784V159H880.588V153ZM858.621 155.025L849.876 129.585L844.202 131.535L852.947 156.975L858.621 155.025ZM847.039 127.56H806.017V133.56H847.039V127.56ZM803.191 129.553L794.128 154.993L799.78 157.007L808.843 131.567L803.191 129.553ZM796.954 153H772.309V159H796.954V153ZM775.112 157.07L819.95 39.5686L814.344 37.4294L769.506 154.93L775.112 157.07ZM817.147 41.499H836.386V35.499H817.147V41.499ZM833.578 39.5553L877.78 157.056L883.396 154.944L839.194 37.4427L833.578 39.5553ZM843.193 108.582L829.519 69.468L823.855 71.448L837.529 110.562L843.193 108.582ZM823.862 69.4475L809.87 108.562L815.52 110.582L829.512 71.4685L823.862 69.4475ZM812.695 112.572H840.361V106.572H812.695V112.572ZM971.9 111.162L969.618 113.109L974.9 119.299V111.162H971.9ZM971.9 38.499V35.499H968.9V38.499H971.9ZM995.114 38.499H998.114V35.499H995.114V38.499ZM995.114 156V159H998.114V156H995.114ZM979.055 156L976.764 157.937L977.663 159H979.055V156ZM918.158 83.973L920.449 82.0361L915.158 75.7781V83.973H918.158ZM918.158 156V159H921.158V156H918.158ZM894.944 156H891.944V159H894.944V156ZM894.944 38.499V35.499H891.944V38.499H894.944ZM909.89 38.499L912.172 36.5516L911.273 35.499H909.89V38.499ZM974.9 111.162V38.499H968.9V111.162H974.9ZM971.9 41.499H995.114V35.499H971.9V41.499ZM992.114 38.499V156H998.114V38.499H992.114ZM995.114 153H979.055V159H995.114V153ZM981.346 154.063L920.449 82.0361L915.867 85.9099L976.764 157.937L981.346 154.063ZM915.158 83.973V156H921.158V83.973H915.158ZM918.158 153H894.944V159H918.158V153ZM897.944 156V38.499H891.944V156H897.944ZM894.944 41.499H909.89V35.499H894.944V41.499ZM907.608 40.4464L969.618 113.109L974.182 109.215L912.172 36.5516L907.608 40.4464ZM1031.83 140.577L1029.71 142.698L1031.83 140.577ZM1031.99 54.24L1029.87 52.1187L1029.86 52.1282L1031.99 54.24ZM1118.97 54.24L1116.84 56.3518L1116.84 56.3613L1118.97 54.24ZM1118.97 140.259L1116.85 138.128L1116.84 138.138L1118.97 140.259ZM1112.29 97.329H1109.29V97.3438L1109.29 97.3587L1112.29 97.329ZM1049.48 70.458L1047.36 68.3367L1049.48 70.458ZM1049.32 124.041L1047.19 126.146L1047.19 126.154L1047.2 126.162L1049.32 124.041ZM1101.79 124.041L1103.92 126.162L1101.79 124.041ZM1075.4 154.908C1058.64 154.908 1044.9 149.405 1033.96 138.456L1029.71 142.698C1041.87 154.857 1057.18 160.908 1075.4 160.908V154.908ZM1033.96 138.456C1022.88 127.376 1017.34 113.837 1017.34 97.647H1011.34C1011.34 115.377 1017.47 130.458 1029.71 142.698L1033.96 138.456ZM1017.34 97.647C1017.34 81.3534 1022.93 67.6489 1034.12 56.3518L1029.86 52.1282C1017.53 64.5751 1011.34 79.8086 1011.34 97.647H1017.34ZM1034.11 56.3613C1045.41 45.0661 1059.16 39.432 1075.56 39.432V33.432C1057.61 33.432 1042.32 39.6699 1029.87 52.1187L1034.11 56.3613ZM1075.56 39.432C1091.96 39.432 1105.65 45.0654 1116.84 56.3518L1121.1 52.1282C1108.75 39.6706 1093.51 33.432 1075.56 33.432V39.432ZM1116.84 56.3613C1128.15 67.6683 1133.77 81.2672 1133.77 97.329H1139.77C1139.77 79.6828 1133.52 64.5557 1121.09 52.1187L1116.84 56.3613ZM1133.77 97.329C1133.77 113.39 1128.15 126.931 1116.85 138.128L1121.08 142.39C1133.52 130.055 1139.77 114.976 1139.77 97.329H1133.77ZM1116.84 138.138C1105.67 149.317 1091.92 154.908 1075.4 154.908V160.908C1093.44 160.908 1108.74 154.733 1121.09 142.38L1116.84 138.138ZM1115.29 97.329C1115.29 85.7886 1111.47 76.0471 1103.76 68.3367L1099.51 72.5793C1106.01 79.0729 1109.29 87.2454 1109.29 97.329H1115.29ZM1103.76 68.3367C1095.99 60.5672 1086.53 56.646 1075.56 56.646V62.646C1084.94 62.646 1092.87 65.9328 1099.51 72.5793L1103.76 68.3367ZM1075.56 56.646C1064.59 56.646 1055.13 60.5672 1047.36 68.3367L1051.6 72.5793C1058.25 65.9328 1066.18 62.646 1075.56 62.646V56.646ZM1047.36 68.3367C1039.65 76.0471 1035.83 85.7886 1035.83 97.329H1041.83C1041.83 87.2454 1045.11 79.0729 1051.6 72.5793L1047.36 68.3367ZM1035.83 97.329C1035.83 108.759 1039.59 118.439 1047.19 126.146L1051.46 121.936C1045.06 115.439 1041.83 107.311 1041.83 97.329H1035.83ZM1047.2 126.162C1054.89 133.848 1064.41 137.694 1075.56 137.694V131.694C1065.94 131.694 1057.96 128.438 1051.45 121.92L1047.2 126.162ZM1075.56 137.694C1086.71 137.694 1096.23 133.848 1103.92 126.162L1099.67 121.92C1093.15 128.438 1085.18 131.694 1075.56 131.694V137.694ZM1103.92 126.162C1111.63 118.45 1115.4 108.752 1115.29 97.2993L1109.29 97.3587C1109.39 107.318 1106.16 115.428 1099.67 121.92L1103.92 126.162ZM1163.78 152.184L1165.09 149.486L1163.78 152.184ZM1144.85 135.966L1142.54 134.057L1141.11 135.794L1142.38 137.656L1144.85 135.966ZM1158.37 119.589L1160.81 117.839L1158.53 114.676L1156.06 117.68L1158.37 119.589ZM1195.73 111.162L1194.39 113.845L1194.43 113.866L1194.47 113.885L1195.73 111.162ZM1184.13 106.551L1183.03 109.344L1183.04 109.348L1183.05 109.351L1184.13 106.551ZM1170.29 100.191L1168.8 102.794L1168.82 102.804L1168.84 102.813L1170.29 100.191ZM1162.82 46.449L1164.79 48.7107L1164.79 48.7087L1162.82 46.449ZM1230.4 52.491L1232.82 54.2622L1234.33 52.1979L1232.53 50.3804L1230.4 52.491ZM1217.84 69.663L1215.65 71.7148L1218.12 74.354L1220.26 71.4342L1217.84 69.663ZM1205.91 61.713L1204.72 64.4672L1204.76 64.4833L1204.8 64.4984L1205.91 61.713ZM1180.95 61.872L1182.76 64.2605L1182.77 64.2552L1182.78 64.2499L1180.95 61.872ZM1186.51 81.588L1185.17 84.2713L1185.24 84.3052L1185.31 84.3356L1186.51 81.588ZM1198.12 86.676L1196.92 89.4236L1196.94 89.4333L1196.96 89.4426L1198.12 86.676ZM1212.43 92.877L1213.74 90.1768L1213.71 90.1662L1213.69 90.156L1212.43 92.877ZM1220.54 147.891L1222.47 150.188L1220.54 147.891ZM1189.37 154.908C1180.58 154.908 1172.5 153.092 1165.09 149.486L1162.46 154.882C1170.74 158.908 1179.72 160.908 1189.37 160.908V154.908ZM1165.09 149.486C1157.7 145.892 1151.8 140.827 1147.33 134.276L1142.38 137.656C1147.45 145.097 1154.16 150.844 1162.46 154.882L1165.09 149.486ZM1147.17 137.875L1160.68 121.498L1156.06 117.68L1142.54 134.057L1147.17 137.875ZM1155.93 121.339C1164.31 133.005 1175.59 138.966 1189.53 138.966V132.966C1177.61 132.966 1168.11 128.009 1160.81 117.839L1155.93 121.339ZM1189.53 138.966C1194.89 138.966 1199.59 137.678 1203.39 134.887L1199.84 130.049C1197.29 131.922 1193.92 132.966 1189.53 132.966V138.966ZM1203.39 134.887C1207.29 132.032 1209.39 128.139 1209.39 123.405H1203.39C1203.39 126.091 1202.31 128.24 1199.84 130.049L1203.39 134.887ZM1209.39 123.405C1209.39 116.743 1204.45 111.89 1196.99 108.439L1194.47 113.885C1201.22 117.006 1203.39 120.315 1203.39 123.405H1209.39ZM1197.08 108.479C1196.06 107.971 1191.99 106.361 1185.2 103.751L1183.05 109.351C1190.04 112.041 1193.71 113.505 1194.39 113.845L1197.08 108.479ZM1185.22 103.758C1179.9 101.672 1175.42 99.6066 1171.75 97.5685L1168.84 102.813C1172.8 105.015 1177.54 107.19 1183.03 109.344L1185.22 103.758ZM1171.79 97.5876C1160.15 90.9226 1154.69 82.0786 1154.69 70.935H1148.69C1148.69 84.5954 1155.64 95.2554 1168.8 102.794L1171.79 97.5876ZM1154.69 70.935C1154.69 61.9426 1158.03 54.6059 1164.79 48.7107L1160.85 44.1873C1152.78 51.2241 1148.69 60.2114 1148.69 70.935H1154.69ZM1164.79 48.7087C1171.68 42.6964 1180.58 39.591 1191.76 39.591V33.591C1179.4 33.591 1169.02 37.0576 1160.85 44.1893L1164.79 48.7087ZM1191.76 39.591C1206.24 39.591 1218.35 44.5855 1228.26 54.6016L1232.53 50.3804C1221.46 39.1965 1207.8 33.591 1191.76 33.591V39.591ZM1227.98 50.7198L1215.41 67.8918L1220.26 71.4342L1232.82 54.2622L1227.98 50.7198ZM1220.02 67.6112C1216.51 63.8667 1212.16 60.9813 1207.02 58.9276L1204.8 64.4984C1209.2 66.2607 1212.8 68.6753 1215.65 71.7148L1220.02 67.6112ZM1207.1 58.9588C1202.1 56.8013 1197.09 55.692 1192.08 55.692V61.692C1196.18 61.692 1200.39 62.5967 1204.72 64.4672L1207.1 58.9588ZM1192.08 55.692C1186.98 55.692 1182.55 56.8524 1179.12 59.4941L1182.78 64.2499C1184.85 62.6516 1187.85 61.692 1192.08 61.692V55.692ZM1179.13 59.4835C1175.72 62.0774 1173.97 65.6725 1173.97 69.981H1179.97C1179.97 67.5055 1180.88 65.6946 1182.76 64.2605L1179.13 59.4835ZM1173.97 69.981C1173.97 76.2367 1178.42 80.8955 1185.17 84.2713L1187.85 78.9047C1181.89 75.9204 1179.97 72.8412 1179.97 69.981H1173.97ZM1185.31 84.3356L1196.92 89.4236L1199.32 83.9284L1187.72 78.8404L1185.31 84.3356ZM1196.96 89.4426C1203.53 92.1968 1208.25 94.2454 1211.17 95.598L1213.69 90.156C1210.67 88.7526 1205.86 86.6672 1199.28 83.9094L1196.96 89.4426ZM1211.12 95.5772C1217.45 98.6399 1222 102.387 1224.98 106.736C1227.94 111.061 1229.46 116.154 1229.46 122.133H1235.46C1235.46 115.074 1233.65 108.772 1229.93 103.345C1226.23 97.9415 1220.77 93.5801 1213.74 90.1768L1211.12 95.5772ZM1229.46 122.133C1229.46 131.752 1225.87 139.493 1218.61 145.594L1222.47 150.188C1231.11 142.933 1235.46 133.502 1235.46 122.133H1229.46ZM1218.61 145.594C1211.32 151.718 1201.67 154.908 1189.37 154.908V160.908C1202.73 160.908 1213.86 157.42 1222.47 150.188L1218.61 145.594Z" fill="#F5F5F5" mask="url(#path-1-outside-1_2670_373)"/>
</svg>
