<svg width="13" height="24" viewBox="0 0 13 24" fill="none" xmlns="http://www.w3.org/2000/svg">
<path d="M12.5848 0.220397V3.78249L12.5457 3.81975C11.7565 3.82348 10.9674 3.81602 10.1783 3.83652C9.86696 3.84583 9.54975 3.89427 9.24624 3.96693C8.66859 4.10666 8.35138 4.49975 8.24172 5.03817C8.18886 5.29713 8.18102 5.56913 8.17906 5.83367C8.17123 6.64409 8.17515 7.45636 8.17515 8.26678C8.17515 8.31708 8.17515 8.36738 8.17515 8.4419H12.4223C12.2343 9.81681 12.0522 11.1694 11.8642 12.5405H8.19277C8.18494 12.6151 8.17515 12.6728 8.17515 12.7287C8.17515 16.125 8.17515 19.5194 8.17515 22.9157C8.17515 22.9679 8.18298 23.02 8.1869 23.0722H3.73413C3.73022 22.9902 3.72238 22.9082 3.72238 22.8263C3.72238 19.4952 3.72238 16.1641 3.72238 12.833V12.5443C3.61469 12.5443 3.52853 12.5443 3.44433 12.5443C2.39478 12.5443 1.34719 12.5443 0.297634 12.5443C0.211477 12.5443 0.12532 12.535 0.0391624 12.5312C0.0254556 12.5145 0.0137068 12.4977 0 12.4809V8.51456C0 8.51456 0.015665 8.50711 0.015665 8.50338C0.015665 8.4922 0.0117487 8.48102 0.00783248 8.46985C0.082241 8.46053 0.158608 8.4419 0.233016 8.4419C1.29823 8.4419 2.36149 8.4419 3.42671 8.4419H3.69497C3.70476 8.39533 3.71847 8.36179 3.71847 8.32639C3.71847 7.34272 3.73218 6.36091 3.71847 5.37723C3.70476 4.39542 3.88491 3.45646 4.34898 2.57339C4.82285 1.67355 5.53169 0.991687 6.48529 0.553878C7.02377 0.307959 7.59163 0.138424 8.19081 0.0843967C8.52174 0.0545883 8.85266 0.0024238 9.18358 0.000560783C9.78668 -0.00316526 10.3917 0.0117389 10.9948 0.0434102C11.5118 0.0713555 12.0287 0.134698 12.5457 0.181274C12.5594 0.194315 12.5711 0.205493 12.5848 0.218534V0.220397Z" fill="white"/>
</svg>
