<svg width="30" height="30" viewBox="0 0 30 30" fill="none" xmlns="http://www.w3.org/2000/svg">
<path d="M26.9281 22.9182H26.2215C26.2215 23.1325 26.2215 23.3404 26.2215 23.5421C26.19 24.5064 25.4013 25.2691 24.4423 25.2628C23.4959 25.2628 22.6947 24.5001 22.6883 23.5484C22.6757 20.9959 22.6757 18.437 22.6883 15.8844C22.6883 14.9327 23.5022 14.1827 24.4486 14.1764C25.4013 14.1764 26.1837 14.9264 26.2215 15.8718C26.2278 16.0798 26.2215 16.2815 26.2215 16.5084H26.8966C26.8966 16.5084 26.9218 16.4768 26.9218 16.4642C26.9912 14.2835 26.9218 12.128 26.0575 10.067C25.0985 7.77917 23.6032 5.94509 21.5401 4.57111C21.458 4.52069 21.376 4.47027 21.294 4.41985C20.9912 4.72868 20.9407 4.72868 20.5495 4.527C16.8523 2.58577 13.1551 2.59208 9.45788 4.527C9.0667 4.72868 9.01623 4.72868 8.72601 4.43246C5.28116 6.56906 2.63129 10.4578 3.09817 16.5147H3.79219C3.79219 16.3067 3.79219 16.105 3.79219 15.9033C3.81742 14.939 4.60608 14.1764 5.56508 14.1764C6.51147 14.1764 7.31905 14.9327 7.32536 15.8844C7.33797 18.437 7.33797 20.9959 7.32536 23.5484C7.32536 24.5127 6.50516 25.2691 5.53984 25.2628C4.59346 25.2565 3.81742 24.4938 3.79219 23.5421C3.79219 23.3404 3.79219 23.1325 3.79219 22.9245C3.41363 22.8993 3.05401 22.9119 2.71331 22.8551C1.49562 22.6535 0.643878 21.9665 0.21485 20.8131C-0.207869 19.6723 0.000335821 18.6071 0.776372 17.668C0.915175 17.5042 0.959339 17.3466 0.959339 17.1386C0.971958 15.9033 0.921484 14.6554 1.02243 13.4264C1.30004 9.88426 2.75116 6.86528 5.31271 4.40094C6.02565 3.71395 6.83955 3.14041 7.6282 2.49754C7.52725 2.12568 7.53987 2.07526 7.9689 1.84836C12.7071 -0.634886 17.4328 -0.615978 22.1521 1.90509C22.4612 2.06896 22.4801 2.15719 22.3855 2.51645C23.0669 3.05217 23.7735 3.54378 24.4045 4.11732C26.9912 6.46822 28.5433 9.39265 28.9282 12.8654C29.0859 14.2772 29.0228 15.7079 29.0544 17.1323C29.0544 17.334 29.0985 17.4979 29.2373 17.6617C30.2657 18.8656 30.2468 20.5862 29.2247 21.8026C29.1301 21.916 29.067 22.0925 29.0607 22.2438C29.048 23.3278 29.0544 24.4056 29.0544 25.4897C29.0544 27.6893 27.4581 29.2713 25.2499 29.2713C22.5622 29.2713 19.8807 29.2713 17.193 29.2713C16.9974 29.2713 16.8334 29.2965 16.7072 29.4666C16.2024 30.1851 13.8428 30.1662 13.2813 29.4792C12.827 28.9246 12.6251 28.3385 12.8522 27.6515C13.0857 26.9519 13.5967 26.5422 14.3223 26.4603C14.7703 26.4098 15.2308 26.4288 15.6788 26.4603C16.1015 26.4918 16.4611 26.6998 16.764 27.0023C16.846 27.0779 16.9785 27.1473 17.0857 27.1473C19.8492 27.1536 22.6126 27.1599 25.3824 27.1473C26.2531 27.1473 26.9155 26.4855 26.9281 25.6157C26.9408 24.7207 26.9281 23.8321 26.9281 22.9182ZM9.23075 3.8211C13.092 1.89248 16.928 1.89248 20.7893 3.8211C21.0606 3.3484 21.3255 2.8883 21.5968 2.42191C17.3129 -0.00461982 11.8996 0.354632 8.43578 2.44712C8.70077 2.90091 8.96576 3.361 9.23075 3.8211ZM6.62503 19.7353C6.62503 18.4811 6.62503 17.2206 6.62503 15.9663C6.62503 15.3487 6.16446 14.8886 5.5777 14.8823C4.97832 14.876 4.50513 15.3424 4.50513 15.9726C4.50513 18.4685 4.50513 20.958 4.50513 23.4539C4.50513 23.643 4.56191 23.8447 4.64393 24.0148C4.85214 24.4308 5.35057 24.6325 5.79852 24.5253C6.29695 24.4056 6.61872 24.0022 6.62503 23.4791C6.62503 22.2312 6.62503 20.9832 6.62503 19.7416V19.7353ZM23.3887 19.7164C23.3887 20.9706 23.3887 22.2312 23.3887 23.4854C23.3887 24.0968 23.8682 24.5506 24.4612 24.5506C25.0417 24.5506 25.5086 24.0905 25.5086 23.498C25.5149 20.9769 25.5086 18.4496 25.5086 15.9285C25.5086 15.5819 25.3635 15.2982 25.0795 15.0966C24.7452 14.8508 24.3729 14.8066 23.9944 14.9894C23.5906 15.1785 23.3887 15.5125 23.3824 15.9537C23.3824 17.208 23.3824 18.4685 23.3824 19.7227L23.3887 19.7164ZM3.77326 17.2584C2.66283 17.1512 1.72276 17.4222 1.11076 18.3992C0.561858 19.2752 0.568167 20.1954 1.12969 21.0652C1.74799 22.0232 2.68176 22.2816 3.77957 22.1808V17.2584H3.77326ZM26.2341 22.1745C27.3635 22.2816 28.3099 21.998 28.9156 21.0022C29.4582 20.1198 29.4329 19.1996 28.8651 18.3361C28.2468 17.4033 27.313 17.1449 26.2341 17.2521V22.1681V22.1745ZM8.02568 3.17823C7.90581 3.25386 7.80486 3.31688 7.71022 3.37991C5.25593 5.006 3.5272 7.20563 2.47986 9.95359C1.62812 12.1847 1.6155 14.5041 1.67228 16.8361C1.67228 16.8487 1.69752 16.8613 1.71645 16.8802C1.93096 16.7983 2.14548 16.71 2.41046 16.6092C1.98144 11.2267 3.75433 6.84007 8.379 3.75807C8.26543 3.56899 8.15187 3.37361 8.03199 3.17192L8.02568 3.17823ZM21.9817 3.17192C21.8555 3.39252 21.7483 3.57529 21.6284 3.77698C21.7293 3.84631 21.8177 3.90303 21.906 3.95976C24.619 5.77492 26.3982 8.25187 27.2373 11.4032C27.5212 12.462 27.6474 13.5398 27.6411 14.6365C27.6411 15.3046 27.6411 15.9663 27.6411 16.6218C27.8872 16.7163 28.1017 16.7983 28.3477 16.8865C28.3477 16.0609 28.354 15.2667 28.3477 14.4726C28.3162 11.5545 27.4329 8.91365 25.7042 6.56276C24.6947 5.19508 23.4581 4.0669 21.9817 3.15932V3.17192ZM17.2435 28.5464C17.3003 28.5527 17.3255 28.5591 17.357 28.5591C20.0511 28.5591 22.7514 28.5717 25.4455 28.5591C27.048 28.5464 28.3225 27.2607 28.3477 25.6661C28.3667 24.6766 28.3477 23.6808 28.3477 22.6913C28.3477 22.6472 28.3351 22.603 28.3288 22.54C28.0827 22.6345 27.8682 22.7228 27.6411 22.811C27.6411 23.6997 27.6411 24.5821 27.6411 25.4644C27.6411 26.9141 26.6947 27.8595 25.2373 27.8595C22.682 27.8595 20.1205 27.8595 17.5652 27.8595H17.2498V28.5527L17.2435 28.5464ZM14.9785 29.2713C15.1551 29.2713 15.3318 29.2776 15.5084 29.2713C16.0952 29.246 16.5431 28.7796 16.5368 28.1998C16.5368 27.6326 16.0889 27.1725 15.5147 27.1536C15.174 27.141 14.827 27.141 14.4863 27.1536C13.9122 27.1788 13.4706 27.6452 13.4706 28.2061C13.4706 28.7733 13.9059 29.2334 14.48 29.2713C14.6441 29.2776 14.8144 29.2713 14.9785 29.2713Z" fill="white"/>
</svg>
