<svg width="23" height="23" viewBox="0 0 23 23" fill="none" xmlns="http://www.w3.org/2000/svg">
<g clip-path="url(#clip0_2670_451)">
<path d="M17.1527 22.9889H5.83968C5.35842 22.8894 4.86254 22.836 4.39871 22.6831C1.72872 21.8018 0.0184396 19.4604 0.00719521 16.6597C-0.00629811 13.2194 0.00213522 9.77917 0.00494632 6.3389C0.00550854 5.24966 0.24389 4.21045 0.794867 3.26959C2.04581 1.13326 3.92588 0.0277252 6.40303 0.011988C9.79884 -0.00936963 13.1947 0.00243327 16.5905 0.011988C17.0144 0.0131121 17.4484 0.0367179 17.8605 0.128331C20.4355 0.701052 22.0868 2.26803 22.7985 4.80902C22.8924 5.14456 22.9267 5.49696 22.9886 5.84206V17.1537C22.9509 17.3887 22.9262 17.6264 22.8733 17.858C22.2903 20.4349 20.7273 22.0873 18.1821 22.8C17.8476 22.8939 17.4957 22.9276 17.1521 22.9894L17.1527 22.9889ZM11.5024 1.36089C9.81908 1.36089 8.13579 1.35358 6.4525 1.36595C6.05838 1.36876 5.65583 1.39686 5.27296 1.48342C2.91669 2.01511 1.3644 3.96989 1.3599 6.40354C1.35372 9.7994 1.35653 13.1953 1.3599 16.5917C1.36046 17.3246 1.47572 18.0395 1.79899 18.7033C2.73284 20.6215 4.28233 21.613 6.40809 21.6282C9.79659 21.6529 13.1857 21.6383 16.5747 21.6298C16.9537 21.6287 17.341 21.5984 17.7099 21.5157C20.0583 20.9902 21.6235 19.0456 21.6325 16.626C21.6448 13.2076 21.6454 9.78928 21.6314 6.37094C21.6246 4.66683 20.9252 3.29095 19.5433 2.28208C18.6623 1.63854 17.6587 1.36258 16.5753 1.36201C14.8847 1.36033 13.1941 1.36201 11.5029 1.36201L11.5024 1.36089Z" fill="white"/>
<path d="M17.796 11.4964C17.7988 14.9687 14.9483 17.8155 11.4867 17.7969C8.00488 17.7784 5.19996 14.9699 5.19715 11.4998C5.19433 8.02807 8.04536 5.18076 11.5064 5.19931C14.9882 5.21786 17.7932 8.02638 17.796 11.4964ZM11.503 16.4396C14.227 16.4345 16.4348 14.2263 16.4388 11.5026C16.4427 8.7739 14.2186 6.55046 11.4901 6.55608C8.765 6.5617 6.55828 8.7694 6.55435 11.4931C6.55041 14.2218 8.774 16.4447 11.503 16.4396Z" fill="white"/>
<path d="M18.1744 2.90779C19.2223 2.90385 20.0848 3.76378 20.087 4.8148C20.0893 5.85908 19.2229 6.73024 18.18 6.73249C17.1444 6.7353 16.2667 5.8602 16.2617 4.81986C16.2566 3.78177 17.1275 2.91116 18.1744 2.90723V2.90779ZM18.1699 4.26568C17.8691 4.26906 17.6138 4.53209 17.6223 4.83054C17.6301 5.11774 17.8876 5.37066 18.1744 5.37291C18.4735 5.37516 18.7298 5.11774 18.7293 4.81536C18.7287 4.51017 18.4763 4.26231 18.1699 4.26625V4.26568Z" fill="white"/>
</g>
<defs>
<clipPath id="clip0_2670_451">
<rect width="22.9887" height="22.9887" fill="white"/>
</clipPath>
</defs>
</svg>
