<svg width="23" height="23" viewBox="0 0 23 23" fill="none" xmlns="http://www.w3.org/2000/svg">
<g clip-path="url(#clip0_2670_446)">
<path d="M12.8996 22.9885H8.15253V7.66067H12.7002V9.71532C13.0315 9.32778 13.3088 8.94099 13.6483 8.61941C14.4854 7.82633 15.5099 7.41406 16.6483 7.30836C17.6421 7.21691 18.6291 7.28962 19.5877 7.59321C21.1585 8.09019 22.0818 9.1996 22.5457 10.7408C22.8553 11.7707 22.9662 12.8321 22.9737 13.8988C22.9939 16.8545 22.9864 19.8109 22.9887 22.7673C22.9887 22.8213 22.9789 22.8753 22.9729 22.9427H18.2214C18.2214 22.8288 18.2214 22.7201 18.2214 22.6114C18.2199 20.0763 18.2267 17.5411 18.2109 15.006C18.2079 14.476 18.16 13.9386 18.0648 13.4176C17.7755 11.8299 16.7472 11.2932 15.2791 11.4716C13.9495 11.6328 13.2203 12.4146 13.0165 13.8569C12.9423 14.3823 12.9078 14.9183 12.9055 15.4497C12.8943 17.8447 12.9003 20.2397 12.9003 22.6346C12.9003 22.7448 12.9003 22.855 12.9003 22.9892L12.8996 22.9885Z" fill="white"/>
<path d="M0.404724 7.66113H5.13376V22.9784H0.404724V7.66113Z" fill="white"/>
<path d="M5.51447 2.75559C5.51971 4.28102 4.28387 5.54035 2.77522 5.54784C1.25983 5.55459 -0.00224535 4.28627 2.99941e-06 2.75784C0.00225135 1.25339 1.23885 0.0105606 2.74524 6.62123e-05C4.26513 -0.0104282 5.50922 1.22791 5.51447 2.75559Z" fill="white"/>
</g>
<defs>
<clipPath id="clip0_2670_446">
<rect width="22.9887" height="22.9887" fill="white"/>
</clipPath>
</defs>
</svg>
