<svg width="11" height="14" viewBox="0 0 11 14" fill="none" xmlns="http://www.w3.org/2000/svg">
<path d="M5.1894 0.00882107C8.18836 -0.173252 10.8367 2.20556 10.9959 5.20634C11.1164 7.48294 8.65947 10.6503 7.24206 12.346C6.871 12.79 6.37671 13.4165 5.96563 13.7998C5.766 13.986 5.5259 14.0535 5.26534 13.9518C5.06526 13.8733 4.53685 13.2458 4.36087 13.0473C2.89891 11.4028 0.156863 7.92786 0.0108936 5.72199C-0.185097 2.76045 2.29138 0.184962 5.1894 0.00882107ZM5.29171 2.81019C3.59556 2.95713 2.62561 4.83718 3.47323 6.31886C4.35314 7.85713 6.57133 7.90504 7.49535 6.38366C8.50304 4.72584 7.21069 2.64363 5.29126 2.81019H5.29171Z" fill="url(#paint0_linear_3176_471)"/>
<defs>
<linearGradient id="paint0_linear_3176_471" x1="5.50008" y1="-0.000976563" x2="5.50008" y2="13.9991" gradientUnits="userSpaceOnUse">
<stop stop-color="#28B2A2"/>
<stop offset="1" stop-color="#227FB3"/>
</linearGradient>
</defs>
</svg>
