<svg width="17" height="22" viewBox="0 0 17 22" fill="none" xmlns="http://www.w3.org/2000/svg">
<path d="M8.02004 0.0153963C12.6548 -0.270718 16.7477 3.46742 16.9937 8.18293C17.1799 11.7604 13.3829 16.7377 11.1923 19.4024C10.6189 20.1001 9.85497 21.0846 9.21967 21.687C8.91115 21.9795 8.54009 22.0857 8.1374 21.9258C7.82818 21.8024 7.01156 20.8164 6.73959 20.5045C4.48019 17.9202 0.242486 12.4596 0.0168966 8.99323C-0.285997 4.33939 3.54129 0.292189 8.02004 0.0153963ZM8.17816 4.41755C5.55683 4.64845 4.05782 7.60282 5.36778 9.93117C6.72764 12.3484 10.1558 12.4237 11.5838 10.033C13.1411 7.42785 11.1439 4.15581 8.17746 4.41755H8.17816Z" fill="#2283B2"/>
</svg>
