<svg width="64" height="64" viewBox="0 0 64 64" fill="none" xmlns="http://www.w3.org/2000/svg">
<g clip-path="url(#clip0_3166_1203)">
<path d="M41.2717 60.0845V63.9997H40.5371C28.8501 63.9997 17.1631 63.9997 5.45393 63.9997C2.15932 63.9997 -0.0222473 61.8196 -0.0222473 58.5051C-0.0222473 51.8759 -0.0222473 45.2246 -0.0222473 38.5954C-0.0222473 35.2364 2.13706 33.0786 5.49845 33.0786C7.70227 33.0786 9.92836 33.0786 12.1322 33.0786C12.1767 33.0786 12.2212 33.0786 12.3548 33.1231V41.2871H20.6358C20.1906 31.7216 24.6205 25.0035 32.9238 20.5544C30.208 19.2197 30.1858 15.4825 33.5471 14.4592C32.5899 13.5026 31.6772 12.5906 30.7423 11.6785C30.2971 11.2336 29.8518 10.722 29.3621 10.3215C28.8946 9.92112 28.7833 9.47622 28.8501 8.89784C29.0727 6.78452 30.7645 5.07163 32.8793 4.82693C33.3691 4.78244 33.8588 4.69346 34.4153 4.62672C34.1705 3.87038 33.9478 3.15853 33.6807 2.37994C34.4153 2.22422 35.1277 2.09075 35.84 1.93503C37.3092 1.64584 38.7785 1.3344 40.2699 1.06746C40.448 1.02297 40.7597 1.15644 40.871 1.31216C41.3607 1.97952 41.8059 2.69137 42.2957 3.40322C43.0971 2.33545 43.8762 1.3344 44.6108 0.311115C44.8334 0.0219249 45.0115 -0.089302 45.3899 0.0219249C47.1485 0.489078 48.9294 0.911741 50.7548 1.37889C50.4209 2.44667 50.1315 3.49221 49.7976 4.58223C50.4654 4.67121 51.0442 4.73795 51.6452 4.82693C53.9158 5.11612 55.6299 6.98473 55.6522 9.23152C55.6522 9.52071 55.4964 9.89888 55.296 10.1213C53.8936 11.5673 52.4466 12.991 50.9551 14.4814C52.4244 14.8818 53.4038 15.7272 53.5819 17.1954C53.76 18.6858 53.0477 19.7536 51.6675 20.4877C52.5802 21.0883 53.4484 21.6444 54.3165 22.2006C59.3698 25.4484 62.4863 30.0087 63.5993 35.926C65.6028 46.3813 58.5461 57.1259 48.1058 59.3281C45.9019 59.7953 43.6091 59.8398 41.2271 60.0845H41.2717ZM46.4362 35.1252C45.2786 35.1252 44.1878 35.0807 43.1193 35.1252C41.5388 35.1919 40.2699 36.5489 40.2477 38.1283C40.2254 39.8857 41.5611 41.2204 43.4532 41.2871C46.2804 41.3984 48.4842 43.6007 48.5065 46.3591C48.5287 49.1842 46.3026 51.52 43.4755 51.5867C42.7631 51.5867 42.0285 51.5867 41.3385 51.5867V57.8377C42.9635 57.7487 44.5663 57.8155 46.1245 57.5708C56.0084 56.1248 62.7534 47.5381 61.8185 37.6389C61.351 32.5669 59.0804 28.3626 55.0734 25.226C52.9809 23.602 50.6658 22.2451 48.4397 20.7991C48.2616 20.6879 47.9944 20.6656 47.7718 20.6656C44.1656 20.6656 40.5593 20.6656 36.9308 20.6656C36.6414 20.6656 36.3298 20.7546 36.1071 20.9103C34.4598 21.9336 32.8348 22.9792 31.232 24.0247C27.0247 26.7831 24.3311 30.5871 23.1958 35.4811C22.7729 37.3719 22.6171 39.285 22.8619 41.2426H39.1791C36.9976 37.8391 38.8007 33.9906 42.3625 33.0786V31.0098H44.4327V33.0341H48.5065V38.1283H46.4807V35.0807L46.4362 35.1252ZM16.5398 43.3782C11.4198 43.3782 7.2348 47.4936 7.21254 52.5878C7.19027 57.7265 11.3308 61.9309 16.4508 61.9309C21.5931 61.9309 25.7781 57.771 25.7781 52.6545C25.7781 47.5603 21.6153 43.3782 16.5398 43.3782ZM39.1569 61.9086V43.4227H23.1291C26.2011 45.8252 27.8484 48.8506 27.8484 52.6768C27.8484 56.4807 26.1788 59.5061 23.1068 61.8864H39.1791L39.1569 61.9086ZM36.4856 3.93711C36.4856 4.04834 36.4856 4.11508 36.4856 4.18181C37.5986 7.49638 38.6894 10.8109 39.8247 14.1255C39.8915 14.3035 40.1809 14.4814 40.359 14.4814C41.6056 14.5037 42.8522 14.4814 44.0988 14.5037C44.4772 14.5037 44.6553 14.3924 44.7666 14.0143C45.479 11.6563 46.2136 9.29825 46.9259 6.94024C47.3489 5.60552 47.7496 4.24855 48.1725 2.86933C47.7051 2.73586 47.3266 2.62464 46.9259 2.53565C46.1542 2.34286 45.5383 2.5579 45.0783 3.18077C44.1433 4.42651 43.2084 5.67226 42.2066 6.98473C41.4275 5.82797 40.7151 4.73795 39.9805 3.67017C39.8692 3.51445 39.6244 3.31424 39.4685 3.33649C38.4668 3.51445 37.4651 3.73691 36.4411 3.93711H36.4856ZM2.1148 42.4216C2.1148 42.4216 2.07027 42.5774 2.07027 42.6219C2.07027 48.072 2.07027 53.5443 2.07027 58.9945C2.07027 60.4404 3.16106 61.7529 4.60801 61.8864C6.3221 62.0198 8.05845 61.9086 9.88384 61.9086C6.8341 59.5284 5.16454 56.4807 5.16454 52.6768C5.16454 48.8506 6.8341 45.8252 9.83932 43.4672C7.21254 43.1113 4.54123 44.0456 2.1148 42.4439V42.4216ZM10.2845 41.3094V35.1474C8.45914 35.1474 6.67828 35.1029 4.91967 35.1474C3.33914 35.2141 2.09254 36.6156 2.09254 38.1728C2.09254 39.7744 3.31688 41.2204 4.91967 41.2649C6.70054 41.3316 8.48141 41.2649 10.3068 41.2649L10.2845 41.3094ZM42.2957 16.5725C41.2717 16.5725 40.2254 16.5725 39.2014 16.5725C37.5096 16.5725 35.7955 16.5725 34.1037 16.5725C33.5917 16.5725 33.1687 16.795 33.1019 17.2843C33.0574 17.6403 33.191 18.0852 33.4136 18.3521C33.5917 18.5523 34.0369 18.6191 34.3485 18.6191C38.9565 18.6191 43.5423 18.6191 48.1503 18.6191C48.9294 18.6191 49.7085 18.6191 50.4654 18.6191C51.1555 18.6191 51.623 18.0852 51.5562 17.4623C51.4894 16.9062 51.0442 16.5725 50.3318 16.5725C47.6383 16.5725 44.967 16.5725 42.2734 16.5725H42.2957ZM41.2939 49.5624C42.0285 49.5624 42.7186 49.5624 43.4087 49.5624C45.0115 49.5179 46.3249 48.2722 46.4362 46.6928C46.5475 45.1133 45.4345 43.6896 43.8539 43.4227C43.008 43.2892 42.1621 43.2002 41.3162 43.089V49.5624H41.2939ZM46.8146 14.4592C47.5715 14.5927 48.128 14.5037 48.6845 13.9253C50.087 12.4126 51.5785 10.9889 53.0477 9.54295C53.6932 8.89784 53.7378 8.5864 53.1367 7.87455C52.8918 7.56311 52.5579 7.22943 52.2018 7.14045C51.2445 6.89575 50.2428 6.76228 49.2633 6.58432C48.4397 9.29825 47.6383 11.8565 46.8369 14.4592H46.8146ZM35.1499 6.62881C34.3485 6.74003 33.5694 6.80677 32.8348 6.96249C32.0557 7.14045 31.5214 7.62985 31.1652 8.36395C30.9871 8.74212 31.0317 9.00906 31.3433 9.3205C32.8793 10.8109 34.4153 12.3236 35.8845 13.8808C36.4188 14.4592 36.9753 14.6371 37.7544 14.4592C36.8863 11.8565 36.0181 9.27601 35.1499 6.65105V6.62881Z" fill="#2283B2"/>
<path d="M48.8403 54.9018C48.5955 54.2122 48.3951 53.6116 48.1725 52.9442C52.825 51.1868 55.8748 47.939 57.3217 43.1562C57.9673 43.3342 58.6129 43.4899 59.303 43.6901C57.6556 49.1848 54.2052 52.8552 48.8403 54.9018Z" fill="#2283B2"/>
<path d="M27.4031 35.415C26.7353 35.2148 26.1343 35.0368 25.4442 34.8143C26.8021 30.432 29.5402 27.2732 33.5471 25.0264C33.9033 25.5603 34.2595 26.1164 34.6602 26.7393C31.143 28.6969 28.6052 31.4998 27.4031 35.415Z" fill="#2283B2"/>
<path d="M26.8021 39.2189H24.7541C24.8209 38.4848 24.8654 37.7952 24.9322 37.0166C25.6445 37.1278 26.2678 37.2168 26.9579 37.328C26.9134 37.9732 26.8466 38.5515 26.8021 39.2189Z" fill="#2283B2"/>
<path d="M57.7002 41.1315C57.7224 40.4642 57.7669 39.908 57.7892 39.2852H59.8372C59.8149 39.9303 59.7704 40.5976 59.7482 41.3317C59.0581 41.265 58.4125 41.1983 57.7002 41.1315Z" fill="#2283B2"/>
<path d="M15.4936 47.4496V45.4697H17.5193V47.4941H20.6136V50.5417H18.6101C18.6101 50.2302 18.5656 49.9188 18.5433 49.5629C17.4748 49.5629 16.4285 49.5406 15.3823 49.5629C14.8257 49.5629 14.4473 50.0745 14.4473 50.6084C14.4473 51.1423 14.8703 51.565 15.449 51.5872C16.0724 51.6095 16.6957 51.5872 17.319 51.5872C19.1444 51.5872 20.5023 52.7662 20.6358 54.4346C20.7694 56.103 19.6118 57.4822 17.831 57.7714C17.7419 57.7714 17.6751 57.7937 17.5638 57.8159V59.7958H15.5158V57.8159H12.4438V54.7238H14.4473V55.7026C15.5603 55.7026 16.6289 55.7471 17.6751 55.7026C18.2317 55.6804 18.5433 55.2577 18.5656 54.7016C18.5656 54.1677 18.1649 53.7228 17.6084 53.7005C16.985 53.656 16.3617 53.7005 15.7384 53.7005C13.8908 53.7005 12.5106 52.4993 12.3993 50.8309C12.288 49.118 13.4456 47.7832 15.3155 47.5163C15.36 47.5163 15.4045 47.5163 15.5158 47.4718L15.4936 47.4496Z" fill="#2283B2"/>
<path d="M35.0831 50.5417V47.5163H32.0334V45.4697H37.1089V50.5417H35.0831Z" fill="#2283B2"/>
<path d="M32.0334 57.7939H35.0609V54.7686H37.1089V59.8405H32.0556V57.8162L32.0334 57.7939Z" fill="#2283B2"/>
</g>
<defs>
<clipPath id="clip0_3166_1203">
<rect width="64" height="64" fill="white"/>
</clipPath>
</defs>
</svg>
