<svg width="42" height="61" viewBox="0 0 42 61" fill="none" xmlns="http://www.w3.org/2000/svg">
<g clip-path="url(#clip0_2670_574)">
<path d="M14.9853 39.5508V37.39H14.3143C12.273 37.39 10.2316 37.3949 8.19199 37.39C5.15419 37.3818 3.01271 35.2702 3.00771 32.2703C2.99936 28.3968 2.97766 24.5233 3.02941 20.6515C3.03942 19.9208 3.22469 19.1146 3.58522 18.4857C4.01418 17.7386 4.15105 16.98 4.26121 16.1705C4.6401 13.3726 5.37785 10.6715 6.6831 8.14775C8.78452 4.08053 12.2813 1.68158 16.6527 0.596227C22.9336 -0.962023 28.4834 0.540399 33.1202 5.02961C34.8828 6.73728 35.9093 8.9162 36.5703 11.2133C37.1395 13.1936 37.4433 15.2461 37.8756 17.2641C37.9256 17.4956 37.9974 17.7386 38.1259 17.9357C38.7085 18.8223 38.9939 19.7813 38.9922 20.8371C38.9872 24.6481 38.9989 28.4592 38.9922 32.2719C38.9855 35.2751 36.8457 37.3818 33.8063 37.39C31.7866 37.3949 29.7653 37.39 27.7457 37.39C27.5204 37.39 27.295 37.39 27.0346 37.39V39.5049C27.0614 39.518 27.0964 39.5525 27.1248 39.5459C28.4684 39.2602 28.5168 39.2323 29.2279 40.4162C29.6969 41.1978 30.3195 41.5968 31.1891 41.8365C33.2104 42.3948 35.215 43.0122 37.2079 43.6608C40.0938 44.6 41.9649 47.1336 41.9866 50.1171C42.01 53.3337 41.9949 56.552 41.9916 59.7687C41.9916 60.6504 41.6378 60.9969 40.7414 60.9969C27.5805 60.9986 14.4178 60.9986 1.2568 60.9969C0.360487 60.9969 0.0083035 60.6488 0.00663438 59.7687C0.00329615 56.5717 -0.00838767 53.3748 0.00997262 50.1795C0.0283329 47.1204 1.8894 44.5967 4.85208 43.6443C7.00524 42.9514 9.17677 42.3176 11.3466 41.6772C11.8273 41.536 12.2279 41.3423 12.4482 40.8727C12.5167 40.7265 12.6302 40.5984 12.722 40.4622C13.2572 39.6729 14.0116 39.3697 14.9853 39.5525V39.5508ZM2.01959 58.9904H19.9643C20.0844 57.4781 20.2814 57.1021 20.9524 57.0693C21.6351 57.0364 21.837 57.3845 22.059 58.9986H39.9453C39.9653 58.9099 39.9903 58.8541 39.9903 58.7966C39.9903 55.8476 40.0204 52.897 39.9787 49.9479C39.9503 47.9365 38.5783 46.1714 36.592 45.5277C34.8161 44.9514 33.0201 44.4341 31.2291 43.9038C31.0806 43.8594 30.8669 43.8709 30.7351 43.9448C28.3232 45.3126 25.9247 46.7034 23.5078 48.0629C22.9086 48.3995 22.3528 48.1894 22.069 47.5621C21.7652 46.8906 21.5099 46.1976 21.2261 45.5162C21.1694 45.3816 21.0809 45.2584 20.9924 45.1057C20.929 45.196 20.8973 45.2256 20.8823 45.2633C20.6002 45.9448 20.3231 46.6295 20.0394 47.3093C19.6455 48.2567 19.1397 48.4389 18.2417 47.9349C16.3807 46.8922 14.5229 45.8413 12.6669 44.7921C12.2346 44.5474 11.8173 44.2765 11.3733 44.0532C11.1847 43.958 10.9227 43.866 10.7374 43.9185C8.94309 44.4374 7.14044 44.9349 5.37618 45.5408C3.38493 46.2255 2.14477 47.6721 2.05464 49.7345C1.92111 52.7984 2.01959 55.8739 2.01959 58.9888V58.9904ZM17.3922 12.0852C16.7946 12.6911 16.2572 13.3233 15.6279 13.8504C14.982 14.3922 14.2759 14.8816 13.5415 15.3003C12.5717 15.8536 11.5953 16.4694 10.5371 16.7748C9.2018 17.1606 8.89135 17.8667 8.97146 19.1507C9.11668 21.4364 8.87298 23.7582 9.14338 26.0241C9.69586 30.648 12.3147 33.9139 16.7078 35.5887C21.0876 37.2586 25.1669 36.4557 28.8156 33.5461C28.9892 33.4082 29.1962 33.3129 29.3881 33.198C29.338 33.1323 29.2896 33.065 29.2396 32.9993C27.7557 32.5839 26.2735 32.1701 24.7997 31.758C24.6712 32.0157 24.5877 32.2029 24.4876 32.3835C23.613 33.9599 21.812 34.7398 20.0327 34.3162C18.3369 33.9122 17.0717 32.3918 17.0066 30.6808C16.9315 28.6743 18.3152 26.9978 20.3532 26.6234C22.2259 26.2803 24.1053 27.4034 24.7897 29.2375C24.8798 29.4805 25.1185 29.7761 25.3505 29.8467C26.9996 30.3458 28.6687 30.7793 30.3211 31.2654C30.685 31.3721 30.8703 31.3097 31.0756 30.9928C32.3007 29.0963 32.9617 27.0323 32.9901 24.7893C33.0184 22.5759 32.9984 20.3642 32.9967 18.1508C32.9967 17.9931 32.9734 17.8355 32.9583 17.6385C31.5997 17.5383 30.2761 17.4168 28.9491 17.3462C25.5575 17.1639 22.4479 16.1984 19.7473 14.1345C18.9144 13.499 18.1633 12.7601 17.3938 12.0852H17.3922ZM6.34928 16.0769C7.24226 15.8273 8.08349 15.6664 8.86631 15.361C11.0562 14.5039 13.176 13.5056 14.9002 11.8652C15.5094 11.2856 15.9384 10.6222 16.0418 9.74376C16.0786 9.44 16.4491 9.02621 16.7479 8.94411C17.0433 8.86366 17.4539 9.10831 17.7861 9.26759C17.9346 9.33983 18.0114 9.55329 18.1232 9.70107C20.203 12.4875 22.927 14.361 26.387 14.9998C28.3399 15.361 30.3512 15.4267 32.3358 15.6205C33.439 15.7288 34.544 15.8241 35.6874 15.9291C35.245 13.2084 34.4956 10.6042 33.0819 8.22656C32.6963 7.57962 32.2273 6.95895 31.6982 6.41873C29.2078 3.87036 26.15 2.36958 22.5764 2.08387C14.1674 1.4123 7.40917 6.19214 6.34928 16.0753V16.0769ZM12.3214 35.4048C9.23184 32.822 7.46425 29.7055 7.08202 25.8599C7.067 25.7121 6.94182 25.5118 6.81163 25.4511C6.23745 25.1851 5.64157 24.9601 5.02066 24.7072C5.02066 27.4083 4.96892 30.1077 5.04236 32.8039C5.07908 34.147 6.26415 35.3014 7.63283 35.3835C9.14004 35.4721 10.6573 35.4032 12.3214 35.4032V35.4048ZM17.0183 40.16C18.2768 40.5147 19.4919 40.8628 20.7087 41.1978C20.8606 41.2405 21.0442 41.2585 21.1927 41.2175C22.4513 40.8792 23.7048 40.5262 24.9716 40.1748V37.8054C22.3144 38.5607 19.6755 38.5574 17.0166 37.8038V40.1617L17.0183 40.16ZM37.0994 31.5264L36.8891 31.4542C35.4954 32.7415 33.8663 33.4558 31.9452 33.4689C31.8467 33.4689 31.7115 33.4755 31.6548 33.5346C31.0589 34.1651 30.4764 34.8088 29.9189 35.4179C31.2976 35.4179 32.753 35.4623 34.2052 35.4032C35.3552 35.3572 36.2599 34.7612 36.6821 33.7136C36.9559 33.0371 36.9692 32.2588 37.0994 31.5248V31.5264ZM19.6588 42.9531C17.9764 42.4818 16.3456 42.0188 14.7082 41.5754C14.5864 41.5426 14.366 41.6099 14.2926 41.7051C13.9955 42.0927 13.7385 42.5081 13.4347 42.9613C15.1338 43.9169 16.7829 44.8446 18.4938 45.8085C18.8877 44.843 19.2616 43.9235 19.6572 42.9531H19.6588ZM23.5045 45.8134C25.2303 44.8413 26.8778 43.9136 28.5669 42.9629C28.2614 42.5097 28.0128 42.1107 27.7273 41.7396C27.6506 41.6378 27.4419 41.5426 27.3284 41.5738C25.6743 42.0204 24.0286 42.49 22.3411 42.9646C22.7333 43.9268 23.1022 44.8315 23.5028 45.815L23.5045 45.8134ZM21.0091 28.5396C19.9209 28.5331 19.0145 29.4083 19.0012 30.4788C18.9878 31.5478 19.8725 32.4492 20.9557 32.4706C22.064 32.4936 22.9971 31.5905 22.9954 30.5002C22.9937 29.4329 22.0941 28.5446 21.0091 28.5396ZM33.2554 31.2456C35.8893 30.7563 37.4917 27.8205 36.9242 24.7269C36.34 24.965 35.7458 25.1933 35.1683 25.456C35.0514 25.5085 34.9329 25.6875 34.9212 25.8172C34.7593 27.7186 34.1885 29.5002 33.2554 31.2456ZM6.98188 17.9751C5.75841 18.3511 4.95557 19.5054 5.00564 20.7451C5.05738 21.9947 5.90363 23.1129 6.98188 23.3312V17.9734V17.9751ZM35.0164 23.3772C36.3233 22.8896 37.0961 21.6893 36.9792 20.42C36.8741 19.2624 36.0279 18.2164 35.0164 18.0079V23.3772Z" fill="#2283B2"/>
<path d="M30.0107 57.064C29.3448 57.064 28.6788 57.0771 28.0128 57.0607C26.8778 57.0344 26.0366 56.2266 26.0032 55.1248C25.9832 54.4499 25.9832 53.7718 26.0032 53.0969C26.0366 52.0181 26.8594 51.1906 27.9527 51.1692C29.3047 51.1446 30.6583 51.1462 32.012 51.1692C33.137 51.1873 33.9615 52.0181 33.9916 53.1331C34.0083 53.7882 34.0099 54.445 33.9916 55.0985C33.9615 56.2118 33.1353 57.0295 32.0087 57.0607C31.3427 57.0788 30.6767 57.064 30.0107 57.064ZM31.9686 53.1725H28.0479V55.064H31.9686V53.1725Z" fill="#2283B2"/>
<path d="M20.001 50.6639C20.001 50.5818 20.001 50.4997 20.001 50.4176C20.011 49.6459 20.3833 49.196 21.0058 49.1992C21.6267 49.2025 21.9906 49.6524 21.999 50.4291C22.0006 50.654 22.0073 50.8806 21.9956 51.1056C21.9639 51.7312 21.5583 52.145 20.9925 52.14C20.4283 52.1368 20.0327 51.7213 20.001 51.0925C19.9944 50.9496 20.001 50.8051 20.001 50.6623V50.6639Z" fill="#2283B2"/>
<path d="M21.999 54.6193C21.999 54.7211 22.0006 54.8245 21.999 54.9263C21.9823 55.6406 21.5884 56.0856 20.9841 56.0757C20.3816 56.0659 20.0127 55.6258 19.9994 54.8984C19.996 54.6735 19.9927 54.4469 19.9994 54.2219C20.0227 53.5536 20.4233 53.1251 21.0109 53.1349C21.595 53.1431 21.9756 53.5717 21.9956 54.2515C21.999 54.3746 21.9956 54.4978 21.9956 54.6209L21.999 54.6193Z" fill="#2283B2"/>
</g>
<defs>
<clipPath id="clip0_2670_574">
<rect width="42" height="61" fill="white"/>
</clipPath>
</defs>
</svg>
