<svg width="62" height="66" viewBox="0 0 62 66" fill="none" xmlns="http://www.w3.org/2000/svg">
<g clip-path="url(#clip0_3472_1649)">
<path d="M44.2469 0C45.5721 1.01514 46.8007 2.32998 47.9812 3.5417C49.2468 4.84043 50.4466 6.23745 51.7058 7.54424C54.7228 10.6783 58.4008 14.0024 61.1669 17.2718C61.368 17.5087 61.918 18.1452 61.9743 18.3965L62 61.5511C61.6703 63.9037 59.9061 65.5424 57.6273 66H18.3868C16.3331 65.8115 13.8837 63.5363 13.8837 61.4238V49.5H3.14085C1.91217 49.5 0.0659369 47.5938 0 46.3305L0.110967 25.5814C0.484073 24.2054 2.08103 22.8164 3.52682 22.8164H13.8837V4.57617C13.8837 2.42827 16.3411 0.232031 18.3868 0H44.2469ZM41.8024 2.57812H18.3224C17.8255 2.57812 16.4569 3.94775 16.4569 4.44727V22.8164H38.2643C40.1395 22.8164 41.9021 25.0417 41.8072 26.8721C41.41 32.9501 42.3267 39.679 41.7863 45.6812C41.6593 47.0895 41.0498 48.393 39.7519 49.0569C39.567 49.152 38.6503 49.5016 38.5232 49.5016H16.4569V61.5543C16.4569 62.128 17.885 63.5137 18.5797 63.4235L57.1818 63.4283C58.1162 63.3913 59.0103 62.7113 59.3304 61.8428C59.3738 61.7251 59.5571 60.9743 59.5571 60.9098V20.3672H43.0246C42.6869 20.3672 41.8024 19.7194 41.8024 19.4004V2.57812ZM58.0132 17.7891L44.2469 3.48047V17.7891H58.0132ZM3.4255 25.4219C2.65999 25.6749 2.48952 26.4113 2.42841 27.1299C2.80956 33.0113 1.93629 39.5065 2.42841 45.3154C2.4863 45.9938 2.61175 46.4739 3.23734 46.8252H38.5522C38.9559 46.6528 39.2389 46.0099 39.2341 45.5748L39.1279 26.2034C38.9478 25.662 38.4364 25.4026 37.8832 25.3881L3.4239 25.4219H3.4255Z" fill="url(#paint0_linear_3472_1649)"/>
<path d="M17.4861 41.8945V31.1309L17.6791 30.9375H21.9248C25.8392 30.9375 27.0132 34.4405 26.5886 37.8018C26.357 39.6306 24.7118 41.8945 22.6967 41.8945H17.4861ZM19.6733 32.8711V39.8965L19.8662 40.0898H21.9248C22.0261 40.0898 22.8334 39.9126 22.9846 39.8626C23.8064 39.5887 24.1425 38.7041 24.2712 37.9291C24.4738 36.7093 24.477 34.1392 23.3963 33.3287C23.2789 33.2401 22.515 32.8695 22.4394 32.8695H19.6733V32.8711Z" fill="url(#paint1_linear_3472_1649)"/>
<path d="M9.6381 37.7695V41.8945H7.45093V30.9375H11.761C12.0279 30.9375 12.9333 31.0519 13.2711 31.1002C16.0002 31.495 16.5567 35.641 14.4402 37.1041C14.0768 37.3554 12.9414 37.7711 12.5329 37.7711H9.6381V37.7695ZM9.6381 35.9648C10.8668 35.8875 13.4062 36.2484 13.4882 34.4728C13.5155 33.8846 12.8626 32.8711 12.2756 32.8711H9.6381V35.9648Z" fill="url(#paint2_linear_3472_1649)"/>
<path d="M36.0129 30.9375V32.8711H30.738V35.4492H35.241V37.2539H30.738V41.8945H28.5508V30.9375H36.0129Z" fill="url(#paint3_linear_3472_1649)"/>
</g>
<defs>
<linearGradient id="paint0_linear_3472_1649" x1="31" y1="0" x2="31" y2="66" gradientUnits="userSpaceOnUse">
<stop stop-color="#28B2A2"/>
<stop offset="1" stop-color="#227FB3"/>
</linearGradient>
<linearGradient id="paint1_linear_3472_1649" x1="22.0784" y1="30.9375" x2="22.0784" y2="41.8945" gradientUnits="userSpaceOnUse">
<stop stop-color="#28B2A2"/>
<stop offset="1" stop-color="#227FB3"/>
</linearGradient>
<linearGradient id="paint2_linear_3472_1649" x1="11.5905" y1="30.9375" x2="11.5905" y2="41.8945" gradientUnits="userSpaceOnUse">
<stop stop-color="#28B2A2"/>
<stop offset="1" stop-color="#227FB3"/>
</linearGradient>
<linearGradient id="paint3_linear_3472_1649" x1="32.2818" y1="30.9375" x2="32.2818" y2="41.8945" gradientUnits="userSpaceOnUse">
<stop stop-color="#28B2A2"/>
<stop offset="1" stop-color="#227FB3"/>
</linearGradient>
<clipPath id="clip0_3472_1649">
<rect width="62" height="66" fill="white"/>
</clipPath>
</defs>
</svg>
