<svg width="129" height="54" viewBox="0 0 129 54" fill="none" xmlns="http://www.w3.org/2000/svg">
<g clip-path="url(#clip0_2670_417)">
<path d="M48.1111 37.7407C48.2228 37.2553 48.6291 36.771 49.0551 36.5234C49.4668 36.2845 50.1742 36.1347 50.6374 36.3182C50.69 36.3388 50.7448 36.3562 50.7984 36.3703C51.174 36.3855 51.554 36.3507 51.9285 36.3041C52.613 36.2063 53.2963 36.0869 53.9851 36.0282C54.6848 35.9685 55.3868 35.9913 56.0865 35.9294C56.3866 35.874 56.679 35.7969 56.967 35.6927C57.6098 35.3897 58.2055 35.0021 58.776 34.5796C59.2677 34.1941 59.7474 33.7924 60.2314 33.3971C60.791 32.9399 61.3725 32.5142 61.9485 32.0799C62.9406 31.298 63.8233 30.3967 64.6106 29.414C65.1023 28.77 65.5754 28.0989 65.9313 27.3725C65.7944 26.6797 65.548 26.0249 65.2096 25.4298C65.0749 25.2767 64.9326 25.1312 64.7793 24.9954C64.6884 24.9368 64.5942 24.8825 64.4989 24.8314C64.3248 24.775 64.1474 24.7315 63.9678 24.6979C63.3031 24.6371 62.6241 24.6436 61.9605 24.649C61.2181 24.6555 60.4767 24.6935 59.7386 24.7771C58.8976 24.9064 58.0697 25.104 57.2736 25.4026C56.9714 25.5644 56.6461 25.6459 56.3001 25.647L55.7536 25.5742C55.2302 25.4558 54.8086 25.0736 54.5261 24.6382C54.4823 24.5708 54.4439 24.497 54.4111 24.421C54.387 24.4492 54.3629 24.4774 54.3399 24.5057C53.258 25.2767 51.9307 25.7306 50.4962 25.7306C46.854 25.7306 43.9005 22.8019 43.9005 19.1902C43.9005 15.5784 46.854 12.6497 50.4962 12.6497C52.0862 12.6497 53.546 13.2079 54.6848 14.1374C55.8949 15.5665 57.7094 16.4743 59.7375 16.4743C63.3798 16.4743 66.3332 13.5456 66.3332 9.93388C66.3332 7.98033 65.4692 6.22659 64.0992 5.02775L64.1167 5.0082C60.6793 1.89817 56.1063 0 51.0864 0C40.4105 0 31.7561 8.58193 31.7561 19.1684C31.7561 28.732 38.8183 36.6591 48.0542 38.1012C48.0651 37.9796 48.0837 37.858 48.1111 37.7407Z" fill="#193152"/>
<path d="M61.1184 22.3018C60.6552 23.0402 60.1296 23.7428 59.547 24.3921C58.8965 25.1186 58.1365 25.7441 57.3327 26.2957C56.5016 26.8669 55.5916 27.2828 54.6564 27.6553C54.111 27.8725 53.5547 28.0571 52.994 28.2297C53.1638 29.2472 53.2131 30.2875 53.2251 31.3148C53.2382 32.43 53.2229 33.5485 53.3456 34.6583C53.4419 35.2469 53.5876 35.8256 53.7989 36.3838C53.9938 36.7954 54.226 37.1863 54.4921 37.5566C54.5403 37.6141 51.036 38.2798 51.0864 38.3363C51.0864 38.3363 51.8683 38.3417 52.8254 38.2787C53.5011 38.2342 54.2797 38.1506 54.8721 38.0322C58.1037 37.4795 60.8775 36.159 63.3688 33.9633C64.6949 32.7666 66.0517 30.5503 66.0517 28.6326C66.0517 25.5899 63.9568 23.0326 61.1184 22.3018Z" fill="#5EB599"/>
<path d="M59.4561 22.0917C57.3908 22.0917 55.5478 23.0332 54.3377 24.5057C53.2558 25.2767 51.9285 25.7306 50.494 25.7306C46.8518 25.7306 43.8983 22.8019 43.8983 19.1902C43.8983 15.5784 46.8518 12.6497 50.494 12.6497C52.084 12.6497 53.5438 13.2079 54.6827 14.1374C55.8927 15.5665 57.7073 16.4743 59.7353 16.4743C63.3776 16.4743 66.331 13.5456 66.331 9.93388C66.331 7.98033 65.467 6.22659 64.097 5.02775L64.1145 5.0082C60.6793 1.89817 56.1063 0 51.0864 0C40.4105 0 31.7561 8.58193 31.7561 19.1684C31.7561 29.7549 40.4105 38.3358 51.0864 38.3369C56.0964 38.3369 60.5227 36.9176 64.166 33.1951L64.6249 32.6902C65.721 31.0939 66.0517 30.5509 66.0517 28.6332C66.0517 25.0215 63.0983 22.0928 59.4561 22.0928V22.0917Z" fill="url(#paint0_linear_2670_417)"/>
<path d="M64.0981 5.02884L64.1156 5.00929C60.6793 1.89817 56.1063 0 51.0864 0C40.4105 0 31.7561 8.58193 31.7561 19.1684C31.7561 20.3695 31.8678 21.5444 32.0814 22.6835C33.5652 22.6922 35.049 22.7226 36.5318 22.7704C36.6686 22.7194 36.8055 22.6694 36.9424 22.6195C38.2401 22.1558 39.5662 21.7257 40.9 21.375C41.948 21.0992 43.0091 20.857 44.0298 20.4943C43.9443 20.073 43.8983 19.6376 43.8983 19.1923C43.8983 15.5806 46.8518 12.6519 50.494 12.6519C52.084 12.6519 53.5438 13.2101 54.6827 14.1396C55.8927 15.5687 57.7073 16.4765 59.7353 16.4765C63.3776 16.4765 66.331 13.5478 66.331 9.93605C66.331 7.98251 65.467 6.22876 64.097 5.02992L64.0981 5.02884Z" fill="url(#paint1_linear_2670_417)"/>
<path d="M80.5056 5.72045C80.0358 5.44789 79.6679 4.98855 79.5212 4.4836C79.5113 4.44777 79.4993 4.41302 79.4872 4.37827C79.3755 4.16326 79.2452 3.95802 79.1039 3.76039C78.6604 3.23047 78.1556 2.75158 77.6168 2.31722C77.3014 2.08809 76.974 1.87851 76.6236 1.70802C75.9173 1.45283 75.1781 1.30732 74.4488 1.12598C74.0699 1.13792 73.691 1.16507 73.3132 1.20633C72.4185 1.3475 71.549 1.57663 70.7069 1.90674C70.316 2.08049 69.9349 2.27487 69.5812 2.51377C69.5067 2.58001 69.4355 2.6495 69.3665 2.72226C69.3161 2.80479 69.2691 2.89058 69.2274 2.97962C69.0336 3.39987 68.5967 3.68872 68.1652 3.85703C68.1586 3.86898 68.1521 3.88092 68.1455 3.89287L54.0869 24.8281C54.0015 24.9464 53.9194 25.0691 53.8416 25.1929C53.2174 26.192 52.8571 27.3702 52.8571 28.6309C52.8571 32.2427 55.8106 35.1713 59.4528 35.1713C61.7853 35.1713 63.8353 33.9703 65.0081 32.158L79.865 9.97938L79.8344 9.95875C80.3293 9.04115 80.6108 7.99217 80.6108 6.87911C80.6108 6.48384 80.5757 6.09617 80.5078 5.71936L80.5056 5.72045Z" fill="#5EB599"/>
<path d="M80.5056 5.72045C80.0358 5.44789 79.6679 4.98855 79.5212 4.4836C79.5113 4.44777 79.4993 4.41302 79.4872 4.37827C79.3755 4.16326 79.2452 3.95802 79.1039 3.76039C78.6604 3.23047 78.1556 2.75158 77.6168 2.31722C77.3014 2.08809 76.974 1.87851 76.6236 1.70802C75.9173 1.45283 75.1781 1.30732 74.4488 1.12598C74.0699 1.13792 73.691 1.16507 73.3132 1.20633C72.4185 1.3475 71.549 1.57663 70.7069 1.90674C70.316 2.08049 69.9349 2.27487 69.5812 2.51377C69.5067 2.58001 69.4355 2.6495 69.3665 2.72226C69.3161 2.80479 69.2691 2.89058 69.2274 2.97962C69.0336 3.39987 68.5967 3.68872 68.1652 3.85703C68.1586 3.86898 68.1521 3.88092 68.1455 3.89287L54.0869 24.8281C54.0015 24.9464 53.9194 25.0691 53.8416 25.1929C53.2174 26.192 52.8571 27.3702 52.8571 28.6309C52.8571 32.2427 55.8106 35.1713 59.4528 35.1713C61.7853 35.1713 63.6973 34.0811 65.0081 32.158L79.865 9.97938L79.8344 9.95875C80.3293 9.04115 80.6108 7.99217 80.6108 6.87911C80.6108 6.48384 80.5757 6.09617 80.5078 5.71936L80.5056 5.72045Z" fill="#5EB599"/>
<path opacity="0.1" d="M80.0873 9.63514L77.9114 4.71164C77.9114 4.71164 76.5283 2.64733 72.9365 2.48336C72.9365 2.48336 69.3063 2.15107 67.7206 4.37935L60.8611 14.7747C61.3265 14.1536 65.8349 11.3921 69.81 15.8226C72.3385 18.6406 71.7932 21.8766 70.9796 23.2437C70.9828 23.2383 74.002 18.7318 74.002 18.7318L80.0884 9.63514H80.0873Z" fill="black"/>
<path d="M96.2594 28.3573C96.1816 28.2325 96.0995 28.1108 96.0141 27.9925L79.8179 3.89293C78.5443 1.81342 76.5064 0.339844 73.9494 0.339844C71.5698 0.339844 69.4859 1.58972 68.3251 3.46183L60.86 14.7737C62.5617 12.274 66.078 12.2338 66.078 12.2338C69.5877 12.2338 71.4055 14.9181 71.4088 14.9225L85.0918 35.3223C86.2646 37.1347 88.3146 38.3357 90.6471 38.3357C94.2894 38.3357 97.2428 35.407 97.2428 31.7953C97.2428 30.5335 96.8825 29.3564 96.2583 28.3573H96.2594Z" fill="url(#paint2_linear_2670_417)"/>
<path d="M50.3133 12.6533C50.3133 12.6533 52.6896 12.3655 55.4459 14.8979L58.2011 11.7683C58.2011 11.7683 49.7066 7.75694 49.7066 7.88074C49.7066 8.00453 50.3133 12.6533 50.3133 12.6533Z" fill="#193152"/>
<path d="M63.383 4.37793C63.383 4.38987 63.383 4.40182 63.383 4.41485C63.3556 5.1739 63.268 5.96878 63.0293 6.69526C62.7687 7.48797 62.4303 8.27634 62.0109 9.00064C61.5707 9.76186 61.0264 10.4471 60.48 11.1366C59.7408 12.0705 58.891 12.9186 57.9723 13.6776C57.3075 14.226 56.622 14.7679 55.9026 15.2555C56.9834 16.0221 58.3063 16.4739 59.7364 16.4739C63.3786 16.4739 66.3321 13.5452 66.3321 9.93343C66.3321 7.97989 65.4681 6.22614 64.0981 5.0273L64.1156 5.00776C63.8769 4.79166 63.6327 4.58208 63.383 4.37793Z" fill="#193152"/>
<path d="M59.4561 22.0915C57.3908 22.0915 55.5478 23.0329 54.3377 24.5054C53.2558 25.2764 51.9285 25.7303 50.494 25.7303C48.4769 25.7303 46.6711 24.8323 45.461 23.4174L45.4577 23.4195C43.1121 20.1911 44.0681 18.4102 44.0374 17.5469C43.9695 15.6651 41.027 19.3626 37.9707 22.1751C35.5604 24.3914 32.7756 25.4762 33.3659 26.8401C34.392 29.2096 35.1629 29.9437 35.8024 30.9058L36.1682 31.3586C39.7141 35.6186 45.0788 38.3345 51.0842 38.3345C56.0099 38.3345 59.8602 36.0041 63.2746 32.9961C64.6008 31.7995 66.0506 30.5485 66.0506 28.6308C66.0506 25.0191 63.0972 22.0904 59.455 22.0904L59.4561 22.0915Z" fill="url(#paint3_linear_2670_417)"/>
<path d="M52.2275 25.503C52.2275 25.503 53.8997 25.1056 55.4963 22.7285L56.0427 25.9623L52.4728 25.731L52.2286 25.503H52.2275Z" fill="#5EB599"/>
<path d="M7.62173 44.8479C8.39814 45.4191 8.94567 46.2053 9.26434 47.2076H8.22511C7.96339 46.5028 7.52755 45.9414 6.91978 45.5233C6.31092 45.1052 5.5586 44.8968 4.65955 44.8968C3.97622 44.8968 3.35641 45.064 2.80011 45.3984C2.24271 45.7329 1.80578 46.2107 1.48711 46.8318C1.16844 47.4541 1.00966 48.1773 1.00966 49.0036C1.00966 49.83 1.16844 50.5511 1.48711 51.1679C1.80468 51.7847 2.24271 52.2603 2.80011 52.5947C3.35641 52.9292 3.97731 53.0954 4.65955 53.0954C5.55751 53.0954 6.31092 52.8869 6.91978 52.4688C7.52755 52.0507 7.96339 51.4904 8.22511 50.7845H9.26434C8.94567 51.7868 8.39814 52.573 7.62173 53.1442C6.84532 53.7154 5.86194 53.9999 4.67378 53.9999C3.76596 53.9999 2.9567 53.786 2.2449 53.3592C1.5331 52.9325 0.981185 52.3406 0.588052 51.5849C0.19492 50.8291 -0.00109863 49.9679 -0.00109863 49.0026C-0.00109863 48.0372 0.19492 47.1609 0.588052 46.3996C0.981185 45.6384 1.5331 45.0477 2.2449 44.6253C2.95561 44.2029 3.76596 43.9922 4.67378 43.9922C5.86194 43.9922 6.84422 44.2778 7.62173 44.8479Z" fill="#193152"/>
<path d="M19.834 53.9022L17.1248 49.8094H15.5249V53.9022H14.5284V44.0889H17.5606C18.6743 44.0889 19.5044 44.3484 20.0519 44.8685C20.5995 45.3887 20.8733 46.0891 20.8733 46.9709C20.8733 47.7875 20.6422 48.4368 20.179 48.9201C19.7158 49.4022 19.0445 49.69 18.1651 49.7834L20.9587 53.9033H19.8351L19.834 53.9022ZM15.5249 49.0721H17.4895C19.0806 49.0721 19.8756 48.3901 19.8756 47.0262C19.8756 45.6623 19.0806 44.938 17.4895 44.938H15.5249V49.0721Z" fill="#193152"/>
<path d="M26.9794 44.8827V48.5856H30.8395V49.3512H26.9794V53.0954H31.2611V53.9022H25.9829V44.0889H31.2611V44.8827H26.9794Z" fill="#193152"/>
<path d="M44.0341 51.613C43.6311 52.3503 43.0398 52.9172 42.2579 53.3114C41.476 53.7056 40.5332 53.9032 39.4293 53.9032H36.4398V44.0898H39.4293C41.0949 44.0898 42.3795 44.5242 43.2829 45.3918C44.1863 46.2595 44.6375 47.4583 44.6375 48.9905C44.6375 50.0026 44.436 50.8768 44.0341 51.6141V51.613ZM42.5459 51.9605C43.2763 51.2503 43.641 50.26 43.641 48.9884C43.641 47.7168 43.2763 46.7264 42.5459 46.0162C41.8155 45.3061 40.7544 44.951 39.3592 44.951H37.4363V53.0247H39.3592C40.7533 53.0247 41.8155 52.6696 42.5459 51.9594V51.9605Z" fill="#193152"/>
<path d="M50.8981 44.0889V53.9022H49.9016V44.0889H50.8981Z" fill="#193152"/>
<path d="M62.2124 51.5078H57.7062L56.8082 53.9023H55.7558L59.4057 44.3115H60.515L64.1649 53.9023H63.0983L62.2135 51.5078H62.2124ZM61.9167 50.7292L59.9653 45.4398L57.9865 50.7292H61.9167Z" fill="#193152"/>
<path d="M70.0028 53.1225H73.5957V53.9022H69.0052V44.0889H70.0017V53.1225H70.0028Z" fill="#193152"/>
<path d="M79.4073 44.0889V53.9022H78.4108V44.0889H79.4073Z" fill="#193152"/>
<path d="M90.7205 51.5078H86.2143L85.3163 53.9023H84.2639L87.9138 44.3115H89.0232L92.673 53.9023H91.6064L90.7216 51.5078H90.7205ZM90.4259 50.7292L88.4745 45.4398L86.4957 50.7292H90.4259Z" fill="#193152"/>
<path d="M104.927 53.9027H103.93L98.512 45.7041V53.9027H97.5155V44.1035H98.512L103.93 52.3162V44.1035H104.927V53.9027Z" fill="#193152"/>
<path d="M111.103 53.0813H116.254V53.9022H110.008V53.1225L115.048 44.9098H110.148V44.0889H116.156V44.8827L111.102 53.0813H111.103Z" fill="#193152"/>
<path d="M127.049 51.5078H122.542L121.644 53.9023H120.592L124.242 44.3115H125.351L129.001 53.9023H127.934L127.05 51.5078H127.049ZM126.754 50.7292L124.803 45.4398L122.824 50.7292H126.754Z" fill="#193152"/>
</g>
<defs>
<linearGradient id="paint0_linear_2670_417" x1="49.0441" y1="38.3358" x2="49.0441" y2="0" gradientUnits="userSpaceOnUse">
<stop offset="0.2" stop-color="#5EB599" stop-opacity="0.5"/>
<stop offset="0.25" stop-color="#4C9487" stop-opacity="0.38"/>
<stop offset="0.33" stop-color="#3A7073" stop-opacity="0.24"/>
<stop offset="0.41" stop-color="#2B5364" stop-opacity="0.13"/>
<stop offset="0.5" stop-color="#20405A" stop-opacity="0.06"/>
<stop offset="0.62" stop-color="#1A3453" stop-opacity="0.01"/>
<stop offset="0.84" stop-color="#193152" stop-opacity="0"/>
</linearGradient>
<linearGradient id="paint1_linear_2670_417" x1="49.0441" y1="38.3358" x2="49.0441" y2="0" gradientUnits="userSpaceOnUse">
<stop offset="0.5" stop-color="#193152" stop-opacity="0"/>
<stop offset="0.52" stop-color="#193152" stop-opacity="0.2"/>
<stop offset="0.58" stop-color="#193152" stop-opacity="0.63"/>
<stop offset="0.6" stop-color="#193152" stop-opacity="0.8"/>
<stop offset="0.65" stop-color="#193152" stop-opacity="0.92"/>
<stop offset="0.7" stop-color="#193152"/>
</linearGradient>
<linearGradient id="paint2_linear_2670_417" x1="82.065" y1="39.9385" x2="75.088" y2="0.0385267" gradientUnits="userSpaceOnUse">
<stop stop-color="#47B1A1"/>
<stop offset="0.25" stop-color="#45ADA2"/>
<stop offset="0.5" stop-color="#41A1A6"/>
<stop offset="0.75" stop-color="#3A8DAD"/>
<stop offset="0.88" stop-color="#3680B3"/>
</linearGradient>
<linearGradient id="paint3_linear_2670_417" x1="58.2274" y1="37.2171" x2="42.2299" y2="17.99" gradientUnits="userSpaceOnUse">
<stop offset="0.3" stop-color="#5EB599"/>
<stop offset="0.44" stop-color="#5EB599" stop-opacity="0.99"/>
<stop offset="0.5" stop-color="#5EB599" stop-opacity="0.95"/>
<stop offset="0.53" stop-color="#5EB599" stop-opacity="0.9"/>
<stop offset="0.57" stop-color="#5AAE95" stop-opacity="0.85"/>
<stop offset="0.64" stop-color="#509B8B" stop-opacity="0.73"/>
<stop offset="0.73" stop-color="#407C7A" stop-opacity="0.52"/>
<stop offset="0.83" stop-color="#2A5264" stop-opacity="0.23"/>
<stop offset="0.9" stop-color="#193152" stop-opacity="0"/>
<stop offset="0.91" stop-color="#193152" stop-opacity="0"/>
<stop offset="1" stop-color="#193152" stop-opacity="0"/>
</linearGradient>
<clipPath id="clip0_2670_417">
<rect width="129" height="54" fill="white"/>
</clipPath>
</defs>
</svg>
